<svg width="200" height="200" viewBox="0 0 200 200" fill="none" xmlns="http://www.w3.org/2000/svg">
<path d="M168.926 128.38C154.254 163.296 115.174 182.851 81.2839 177.576C75.7713 176.719 60.6526 174.159 47.2639 162.096C21.4987 138.872 15.9861 92.8807 36.7701 60.4676C51.9002 36.8778 79.0167 23.5057 104.788 24.1743C110.34 24.3172 131.61 25.2087 150.308 40.7866C153.056 43.0724 159.111 48.5127 164.567 57.1417C177.385 77.3999 178.487 105.624 168.926 128.38Z" fill="url(#paint0_linear)"/>
<path d="M87.6275 86.019C87.0621 76.3099 83.4039 67.738 77.9987 61.8635C73.1702 56.6061 70.4789 49.6743 70.6372 42.5082C70.6542 41.7539 70.6429 40.9938 70.5976 40.2224C69.9192 28.5418 62.2863 19.5013 53.5508 20.0214C44.8154 20.5357 38.2851 30.4219 38.9692 42.1025C39.1105 44.4912 39.5402 46.7656 40.2074 48.8742C42.3503 55.6003 42.011 62.915 39.0031 69.2981C36.3118 75.0013 34.9379 81.8473 35.3619 89.1277C35.9952 99.9854 40.4901 109.414 46.9753 115.255C49.4291 117.466 51.4758 120.112 52.9798 123.055C55.4789 127.953 59.9455 131.107 64.8475 130.816C70.134 130.501 74.4537 126.261 76.1442 120.455C77.0997 117.169 78.6885 114.112 80.7126 111.363C85.4959 104.866 88.1985 95.8366 87.6275 86.019Z" fill="#BDD0FB"/>
<path opacity="0.57" d="M57.3258 32.2559C58.9146 39.9077 60.2602 47.5995 61.5267 55.3085C61.8433 57.2343 62.1317 59.1658 62.4257 61.0974L62.8667 63.9946L63.2795 66.8977C63.5509 68.8349 63.8449 70.7664 64.0937 72.7037L64.8343 78.5154C65.281 82.3956 65.7616 86.2758 66.1348 90.1674C66.327 92.1104 66.5532 94.0533 66.7058 96.002L67.1864 101.842C67.7462 109.637 68.1193 117.455 68.0911 125.272H67.7575L67.5539 119.42L67.5087 117.957L67.4239 116.495L67.2486 113.574L67.079 110.654C67.0224 109.683 66.9376 108.711 66.8641 107.734C66.7115 105.791 66.5758 103.842 66.4062 101.899C65.6937 94.1276 64.8796 86.3672 63.9071 78.624C63.3926 74.7552 62.9063 70.8864 62.3635 67.0177L61.9621 64.1204L61.538 61.2231C61.2553 59.2915 60.9783 57.36 60.6786 55.4342C60.1132 51.5711 59.5139 47.7138 58.8919 43.8622C58.287 40.0048 57.6424 36.1532 56.9922 32.3073L57.3258 32.2559Z" fill="white"/>
<path d="M56.9142 79.0542C55.2293 73.2196 51.8199 68.5108 47.7208 65.6878C44.057 63.1619 41.4618 59.316 40.5685 54.9272C40.4724 54.4644 40.3593 54.0015 40.2292 53.5386C38.1995 46.5154 32.3137 42.0809 27.0724 43.6238C21.8368 45.1667 19.236 52.1157 21.2601 59.1332C21.6729 60.5675 22.2496 61.8933 22.9507 63.0876C25.184 66.8878 25.9869 71.3909 25.0426 75.7054C24.1945 79.557 24.3076 83.9287 25.5685 88.3003C27.4512 94.8264 31.4938 99.9409 36.2375 102.587C38.0355 103.587 39.6412 104.913 40.9643 106.496C43.1637 109.13 46.3129 110.421 49.253 109.553C52.4249 108.616 54.466 105.427 54.6865 101.65C54.8165 99.5123 55.3537 97.4265 56.2074 95.4664C58.2202 90.8376 58.616 84.9573 56.9142 79.0542Z" fill="#91B3FA"/>
<path opacity="0.57" d="M31.0645 50.5557C33.0886 54.9959 34.9714 59.4933 36.809 64.0135C37.2669 65.145 37.7079 66.2822 38.1546 67.4137L38.8218 69.1166L39.4776 70.8253C39.9073 71.9682 40.354 73.0997 40.7724 74.2483L42.0276 77.6885C42.8361 79.9914 43.6616 82.2887 44.4305 84.6031C44.815 85.7632 45.2221 86.9118 45.5839 88.0776L46.6808 91.5692C48.1 96.2437 49.406 100.952 50.469 105.718L50.2654 105.764L49.3325 102.227L49.1007 101.341L48.8463 100.461L48.3374 98.7067L47.8342 96.9523C47.6646 96.3637 47.478 95.7865 47.3028 95.2036C46.9409 94.0379 46.5904 92.8721 46.2172 91.712C44.7076 87.0775 43.1414 82.4601 41.4792 77.8828C40.6311 75.5969 39.7999 73.3054 38.9405 71.031L38.296 69.3223L37.6401 67.6194C37.2047 66.4822 36.7637 65.345 36.3171 64.2135C35.4407 61.9391 34.5417 59.6761 33.6314 57.4132C32.7324 55.1502 31.8052 52.8929 30.8779 50.6414L31.0645 50.5557Z" fill="white"/>
<path d="M177.307 96.836C178.792 61.9034 149.755 32.2138 112.45 30.5224C75.1459 28.831 43.701 55.7782 42.216 90.7108C40.7311 125.643 69.7685 155.333 107.073 157.025C144.377 158.716 175.822 131.769 177.307 96.836Z" fill="#7D97F4"/>
<path opacity="0.15" d="M106.167 139.8C135.47 139.8 159.224 117.119 159.224 89.1402C159.224 61.1616 135.47 38.4805 106.167 38.4805C76.8648 38.4805 53.1104 61.1616 53.1104 89.1402C53.1104 117.119 76.8648 139.8 106.167 139.8Z" fill="white"/>
<g opacity="0.68">
<path opacity="0.68" d="M127.099 94.0084C127.082 105.175 126.325 116.364 124.38 127.37C123.888 130.119 123.317 132.856 122.633 135.565C121.948 138.274 121.162 140.959 120.196 143.588C119.223 146.205 118.092 148.788 116.56 151.148C115.786 152.32 114.915 153.44 113.829 154.366C113.287 154.823 112.698 155.229 112.043 155.532C111.392 155.829 110.68 156.017 109.956 156.029C109.233 156.052 108.515 155.909 107.847 155.634C107.18 155.366 106.575 154.977 106.021 154.537C104.913 153.64 104.02 152.531 103.234 151.371C101.673 149.028 100.531 146.451 99.5473 143.84C98.5692 141.217 97.772 138.536 97.0822 135.828C96.3924 133.119 95.8157 130.382 95.3182 127.633C94.3287 122.136 93.6502 116.581 93.1923 111.015C92.74 105.449 92.5138 99.8602 92.4855 94.277C92.4742 91.4826 92.5477 88.6939 92.6438 85.8995C92.7456 83.1108 92.8983 80.322 93.1018 77.5333C93.5089 71.9616 94.1195 66.4071 95.0298 60.8925C95.4878 58.1381 96.0136 55.3951 96.6525 52.6749C97.2914 49.9548 98.0377 47.2575 98.9593 44.6231C99.423 43.303 99.9318 42.0001 100.509 40.7258C101.085 39.4514 101.73 38.2056 102.493 37.0284C103.256 35.8569 104.127 34.7369 105.218 33.8397C105.761 33.394 106.366 33.0111 107.022 32.7482C107.678 32.4853 108.39 32.3482 109.097 32.3768C109.804 32.3996 110.499 32.5768 111.144 32.8625C111.788 33.1482 112.382 33.5425 112.925 33.9826C114.01 34.874 114.909 35.9655 115.712 37.1141C117.301 39.4228 118.494 41.9715 119.534 44.5602C120.563 47.1604 121.411 49.8234 122.152 52.5149C122.887 55.2065 123.515 57.9323 124.052 60.6753C126.2 71.653 127.071 82.8422 127.099 94.0084ZM126.285 94.0084C126.296 88.4425 126.087 82.8765 125.629 77.3333C125.177 71.7902 124.493 66.2585 123.475 60.7953C122.966 58.0638 122.372 55.3436 121.671 52.6578C120.965 49.9719 120.15 47.3147 119.155 44.7202C118.155 42.1373 116.996 39.6 115.452 37.3084C114.677 36.1712 113.807 35.0912 112.755 34.2111C112.229 33.7768 111.664 33.3882 111.048 33.1082C110.431 32.8282 109.77 32.6454 109.097 32.6282C108.424 32.6053 107.751 32.7425 107.129 32.9997C106.507 33.2568 105.931 33.634 105.411 34.0683C104.365 34.9483 103.516 36.0512 102.781 37.2113C102.046 38.3771 101.419 39.6171 100.865 40.8801C100.305 42.1487 99.8187 43.4459 99.3721 44.7603C98.4844 47.389 97.772 50.0805 97.167 52.7892C96.562 55.5037 96.0645 58.2409 95.6404 60.9896C94.798 66.4871 94.2496 72.0302 93.899 77.5848C93.5485 83.1393 93.4297 88.7053 93.4354 94.2713C93.4184 99.8373 93.605 105.398 94.0121 110.946C94.4248 116.495 95.0581 122.027 96.0023 127.507C96.4772 130.245 97.0313 132.97 97.6928 135.668C98.3543 138.365 99.1289 141.034 100.073 143.64C101.029 146.234 102.143 148.788 103.646 151.091C104.404 152.234 105.269 153.314 106.315 154.171C106.835 154.594 107.406 154.966 108.023 155.217C108.633 155.469 109.295 155.612 109.951 155.589C110.612 155.572 111.257 155.394 111.862 155.114C112.467 154.834 113.021 154.446 113.535 154.006C114.559 153.12 115.401 152.023 116.147 150.874C117.629 148.554 118.726 145.994 119.67 143.394C120.603 140.788 121.366 138.114 122.022 135.416C122.678 132.719 123.226 129.993 123.695 127.25C124.634 121.77 125.256 116.238 125.674 110.689C126.093 105.14 126.285 99.5744 126.285 94.0084Z" fill="white"/>
<path opacity="0.68" d="M154.973 94.0084C154.933 101.197 154.023 108.392 152.118 115.33C150.178 122.25 147.261 128.902 143.292 134.879C141.307 137.862 139.063 140.674 136.552 143.222C134.042 145.771 131.266 148.057 128.252 149.971C125.239 151.88 121.982 153.406 118.573 154.446C115.163 155.486 111.607 156.029 108.051 156.029C104.489 156.029 100.932 155.492 97.5229 154.452C94.1135 153.417 90.8512 151.891 87.832 149.983C84.8184 148.068 82.0366 145.783 79.5206 143.234C77.0046 140.685 74.7543 137.879 72.7697 134.891C68.795 128.913 65.8662 122.256 63.9213 115.335C62.9657 111.866 62.2533 108.335 61.7784 104.763C61.3091 101.197 61.0716 97.5972 61.0547 93.997C61.0716 90.3968 61.3091 86.8024 61.7841 83.2308C62.259 79.6649 62.9714 76.1275 63.9326 72.6645C65.8832 65.7442 68.8176 59.0924 72.7924 53.1207C74.7826 50.1377 77.0329 47.3318 79.5489 44.7888C82.0649 42.2458 84.841 39.9657 87.8546 38.0571C90.8738 36.1541 94.1305 34.6397 97.5342 33.6054C100.938 32.5653 104.489 32.0282 108.045 32.0225C111.601 32.0282 115.152 32.5711 118.55 33.6111C121.954 34.6455 125.21 36.1655 128.224 38.0685C131.238 39.9771 134.008 42.263 136.518 44.806C139.029 47.349 141.273 50.1548 143.258 53.1378C147.227 59.1095 150.15 65.7613 152.095 72.6759C154.006 79.6249 154.928 86.8195 154.973 94.0084ZM154.034 94.0084C154.023 86.8995 153.147 79.7849 151.292 72.9217C149.426 66.0699 146.616 59.4524 142.749 53.5035C140.815 50.532 138.622 47.7318 136.162 45.1831C133.703 42.6401 130.983 40.3429 128.015 38.4285C125.041 36.5255 121.824 34.9998 118.46 33.9654C115.09 32.9311 111.579 32.3882 108.056 32.371C104.534 32.3882 101.017 32.9311 97.6529 33.9711C94.2832 35.0112 91.0774 36.5427 88.1034 38.4456C85.135 40.36 82.4211 42.663 79.9673 45.206C77.5134 47.7547 75.3197 50.5548 73.3917 53.5264C69.53 59.4753 66.7256 66.087 64.8711 72.9331C63.9439 76.3618 63.2767 79.8592 62.8244 83.3793C62.3721 86.8995 62.1459 90.454 62.1346 94.0084C62.1459 97.5629 62.3721 101.112 62.83 104.632C63.288 108.152 63.9608 111.649 64.8881 115.072C66.7483 121.918 69.5583 128.524 73.42 134.468C75.348 137.434 77.5417 140.234 79.9955 142.777C82.4494 145.314 85.1633 147.617 88.1316 149.526C91.1056 151.423 94.3114 152.943 97.6756 153.983C101.034 155.023 104.545 155.572 108.062 155.589C111.579 155.572 115.09 155.029 118.454 153.989C121.818 152.954 125.03 151.434 128.004 149.537C130.978 147.634 133.691 145.331 136.151 142.794C138.61 140.251 140.804 137.456 142.738 134.485C146.611 128.542 149.421 121.93 151.292 115.084C153.135 108.238 154.018 101.123 154.034 94.0084Z" fill="white"/>
<path opacity="0.68" d="M53.2868 69.4698L67.3765 69.3555L81.4663 69.2926L109.651 69.2412L137.837 69.2984L151.926 69.3669L166.016 69.4926C166.039 69.4926 166.056 69.5098 166.056 69.5327C166.056 69.5555 166.039 69.5726 166.016 69.5726L151.926 69.6984L137.837 69.7669L109.651 69.8241L81.4663 69.7727L67.3765 69.7098L53.2868 69.5955C53.2529 69.5955 53.2246 69.5669 53.2246 69.5327C53.2303 69.4984 53.2529 69.4698 53.2868 69.4698Z" fill="white"/>
<path opacity="0.68" d="M69.6384 45.6114C72.9742 45.56 76.3101 45.5371 79.6459 45.4971L89.6534 45.4342C92.9893 45.4057 96.3251 45.4114 99.661 45.4L109.669 45.3828L129.678 45.44L139.685 45.5085C143.021 45.5485 146.357 45.5771 149.693 45.6343C149.716 45.6343 149.733 45.6514 149.733 45.6743C149.733 45.6971 149.716 45.7143 149.693 45.7143C146.357 45.7714 143.021 45.7943 139.685 45.84L129.678 45.9086L109.669 45.9657L99.661 45.9486C96.3251 45.9371 92.9893 45.9428 89.6534 45.9143L79.6459 45.8514C76.3101 45.8114 72.9742 45.7885 69.6384 45.7371C69.6044 45.7371 69.5762 45.7085 69.5762 45.6743C69.5762 45.64 69.6044 45.6114 69.6384 45.6114Z" fill="white"/>
<path opacity="0.68" d="M48.3903 93.3214L63.707 93.2071L79.0236 93.1442L109.657 93.0928L140.29 93.1499L155.607 93.2185L170.923 93.3442C170.946 93.3442 170.963 93.3614 170.963 93.3842C170.963 93.4071 170.946 93.4242 170.923 93.4242L155.607 93.5499L140.29 93.6185L109.657 93.6757L79.0236 93.6242L63.707 93.5614L48.3903 93.4471C48.3564 93.4471 48.3281 93.4185 48.3281 93.3842C48.3281 93.3499 48.3564 93.3214 48.3903 93.3214Z" fill="white"/>
<path opacity="0.68" d="M53.2868 117.181L67.3765 117.066L81.4663 117.004L109.651 116.952L137.837 117.009L151.926 117.078L166.016 117.204C166.039 117.204 166.056 117.221 166.056 117.244C166.056 117.266 166.039 117.284 166.016 117.284L151.926 117.409L137.837 117.478L109.651 117.535L81.4663 117.484L67.3765 117.421L53.2868 117.306C53.2529 117.306 53.2246 117.278 53.2246 117.244C53.2303 117.209 53.2529 117.181 53.2868 117.181Z" fill="white"/>
<path opacity="0.68" d="M151.694 141.319H71.6563C71.5375 141.319 71.4414 141.222 71.4414 141.102C71.4414 140.982 71.5375 140.885 71.6563 140.885H151.694C151.813 140.885 151.909 140.982 151.909 141.102C151.909 141.222 151.813 141.319 151.694 141.319Z" fill="white"/>
</g>
<path d="M22.7881 174.852H114.089V156.383H22.7881C24.7444 156.383 24.7444 174.852 22.7881 174.852Z" fill="#91B3FA"/>
<path d="M114.082 170.231V161.779C114.082 158.802 112.279 156.384 110.051 156.384H23.1719C21.4191 156.384 20.0057 154.95 20.0057 153.179C20.0057 152.641 20.4354 152.207 20.9668 152.207H115.925C118.102 152.207 121.562 155.67 121.562 159.939V171.745C121.562 175.768 118.204 179.031 116.152 179.031H21.4644C20.6559 179.031 20 178.368 20 177.551C20 176.06 21.193 174.854 22.6687 174.854H110.628C112.539 174.854 114.082 172.785 114.082 170.231Z" fill="url(#paint1_linear)"/>
<path d="M111.555 160.366H25.9481C25.8407 160.366 25.7559 160.28 25.7559 160.172C25.7559 160.063 25.8407 159.978 25.9481 159.978H111.555C111.663 159.978 111.747 160.063 111.747 160.172C111.747 160.28 111.657 160.366 111.555 160.366Z" fill="white"/>
<path d="M111.555 163.109H25.9481C25.8407 163.109 25.7559 163.024 25.7559 162.915C25.7559 162.806 25.8407 162.721 25.9481 162.721H111.555C111.663 162.721 111.747 162.806 111.747 162.915C111.747 163.024 111.657 163.109 111.555 163.109Z" fill="white"/>
<path d="M111.555 165.847H25.9481C25.8407 165.847 25.7559 165.761 25.7559 165.652C25.7559 165.544 25.8407 165.458 25.9481 165.458H111.555C111.663 165.458 111.747 165.544 111.747 165.652C111.747 165.761 111.657 165.847 111.555 165.847Z" fill="white"/>
<path d="M111.555 168.591H25.9481C25.8407 168.591 25.7559 168.505 25.7559 168.396C25.7559 168.288 25.8407 168.202 25.9481 168.202H111.555C111.663 168.202 111.747 168.288 111.747 168.396C111.742 168.505 111.657 168.591 111.555 168.591Z" fill="white"/>
<path d="M111.555 171.333H25.9481C25.8407 171.333 25.7559 171.247 25.7559 171.139C25.7559 171.03 25.8407 170.944 25.9481 170.944H111.555C111.663 170.944 111.747 171.03 111.747 171.139C111.742 171.247 111.657 171.333 111.555 171.333Z" fill="white"/>
<path d="M32.9411 152.12H112.821C113.448 152.12 113.957 151.606 113.957 150.971V133.228C113.957 132.593 113.448 132.079 112.821 132.079H32.9411C32.3135 132.079 31.8047 132.593 31.8047 133.228V150.971C31.8047 151.612 32.3135 152.12 32.9411 152.12Z" fill="url(#paint2_linear)"/>
<path d="M95.4295 149.817H104.261C104.487 149.817 104.668 149.634 104.668 149.406V134.799C104.668 134.571 104.487 134.388 104.261 134.388H95.4295C95.2034 134.388 95.0225 134.571 95.0225 134.799V149.406C95.0225 149.634 95.2034 149.817 95.4295 149.817Z" fill="#91B3FA"/>
<path d="M90.1877 149.818H93.3935C93.5066 149.818 93.6027 149.726 93.6027 149.606V134.588C93.6027 134.474 93.5123 134.377 93.3935 134.377H90.1877C90.0746 134.377 89.9785 134.468 89.9785 134.588V149.606C89.9785 149.726 90.069 149.818 90.1877 149.818Z" fill="#91B3FA"/>
<path d="M55.6985 99.1836C55.6985 99.1836 55.6985 99.8179 53.6743 99.7779C52.5492 99.755 50.4572 99.5093 49.2755 101.292C48.6649 102.212 47.5567 102.635 46.5107 102.292C43.9156 101.435 39.5677 100.812 36.8651 104.738C34.8014 107.733 35.8191 109.79 37.3174 111.081C38.4199 112.03 38.6348 113.693 37.7414 114.841C36.8877 115.944 36.5428 117.55 38.0863 119.745C41.5522 124.665 50.4911 118.585 50.4911 118.585L58.8364 104.275L55.6985 99.1836Z" fill="url(#paint3_linear)"/>
<path d="M38.9336 109.506C38.8319 109.506 38.7244 109.409 38.6566 109.289C37.9159 108.003 38.0742 106.203 39.0411 104.917C39.6234 104.146 40.4037 103.626 41.2461 103.448C41.8454 103.323 42.4561 103.374 43.0271 103.437C43.994 103.54 44.9721 103.694 45.922 103.894C46.0011 103.911 46.0803 103.928 46.1594 103.946C46.7135 104.066 47.2902 104.186 47.8669 104.186C47.8726 104.186 47.8726 104.186 47.8783 104.186C48.6076 104.186 49.2522 103.974 49.6819 103.58C49.9533 103.334 50.1512 103.02 50.349 102.711C50.5865 102.334 50.8353 101.94 51.2085 101.688C51.2198 101.683 51.2367 101.683 51.2424 101.694C51.248 101.705 51.248 101.723 51.2367 101.728C50.8692 101.974 50.6261 102.363 50.3886 102.734C50.1907 103.043 49.9872 103.368 49.7158 103.614C49.2748 104.014 48.6246 104.231 47.8783 104.231C47.8726 104.231 47.8726 104.231 47.8669 104.231C47.2846 104.231 46.7079 104.106 46.1481 103.991C46.069 103.974 45.9898 103.957 45.9107 103.94C44.9608 103.74 43.9883 103.591 43.0215 103.488C42.4504 103.426 41.8454 103.38 41.2518 103.5C40.4206 103.671 39.646 104.186 39.075 104.951C38.1195 106.22 37.9612 107.997 38.6905 109.271C38.7471 109.363 38.8658 109.506 38.9789 109.449C38.9902 109.443 39.0071 109.449 39.0128 109.46C39.0184 109.471 39.0128 109.489 39.0015 109.494C38.9902 109.5 38.9619 109.506 38.9336 109.506Z" fill="white"/>
<path d="M38.9223 108.895C38.911 108.895 38.8997 108.889 38.8997 108.877C38.7414 108.026 38.8036 107.232 39.0863 106.586C39.4142 105.826 40.0701 105.266 40.7881 105.123C40.7994 105.123 40.8164 105.129 40.8164 105.14C40.8164 105.152 40.8107 105.163 40.7994 105.169C40.0983 105.306 39.4594 105.854 39.1315 106.603C38.8545 107.243 38.7866 108.026 38.9449 108.872C38.9506 108.877 38.9393 108.895 38.9223 108.895C38.928 108.895 38.928 108.895 38.9223 108.895Z" fill="white"/>
<path d="M78.5852 144.141C78.5626 144.135 67.4751 124.506 65.9768 122.66C65.7224 122.351 65.3322 122.191 64.9421 122.237L61.8494 122.609L58.2139 130.558L64.2693 126.992C63.67 131.18 71.4499 137.409 74.1185 139.678C74.3899 139.907 74.4125 140.324 74.1694 140.581L73.1065 141.707C74.8536 143.501 76.872 144.65 79.1506 145.181L78.5852 144.141Z" fill="url(#paint4_linear)"/>
<path d="M73.7166 141.106C73.7166 141.106 73.0381 141.329 72.8063 141.941C72.6988 142.232 72.8176 142.564 73.0664 142.747C74.1858 143.558 77.8779 146.175 79.5854 146.69C79.7268 146.73 79.8568 146.604 79.8285 146.461C79.7437 146.061 79.4554 145.261 78.5451 144.09L78.6242 144.255C78.726 144.467 78.4998 144.69 78.2963 144.57C77.1598 143.924 74.836 142.501 73.7166 141.106Z" fill="url(#paint5_linear)"/>
<path d="M74.2656 148.959C74.2486 148.948 72.5807 144.896 72.5637 144.885C71.0372 135.501 67.3168 127.461 66.22 125.347C66.0334 124.992 65.6828 124.758 65.287 124.724L62.183 124.455L57.0322 131.495L63.6757 129.244C62.2509 133.221 68.6229 140.913 70.7827 143.685C71.0032 143.965 70.941 144.376 70.647 144.576L69.3805 145.462C70.7318 147.576 72.4789 149.113 74.6048 150.102L74.2656 148.959Z" fill="url(#paint6_linear)"/>
<path d="M70.1103 144.993C70.1103 144.993 69.3979 145.073 69.053 145.622C68.889 145.885 68.9343 146.233 69.1491 146.468C70.082 147.49 73.1748 150.811 74.7409 151.662C74.8709 151.731 75.0236 151.633 75.0236 151.485C75.0179 151.073 74.8992 150.233 74.2434 148.902L74.2886 149.085C74.3451 149.313 74.0794 149.485 73.9041 149.325C72.9147 148.456 70.9245 146.582 70.1103 144.993Z" fill="url(#paint7_linear)"/>
<path d="M47.6481 122.969C47.6481 122.969 44.838 127.192 44.6062 129.118C44.3744 131.044 45.3808 131.713 48.3209 131.958C57.0733 132.69 61.3816 130.038 61.3816 130.038C61.9809 126.181 62.405 125.198 67.4031 123.101C67.4031 123.101 61.0819 123.609 59.8098 123.106C58.5489 122.615 47.6481 122.969 47.6481 122.969Z" fill="url(#paint8_linear)"/>
<path d="M55.2447 122.408C55.2447 122.408 58.5184 119.259 60.1241 117.173C60.9948 116.048 61.2662 114.562 60.8648 113.19C60.1297 110.687 58.8237 108.093 58.7049 107.693C58.524 107.076 54.8546 107.099 54.8546 107.099C54.8546 107.099 47.6344 111.836 44.8018 119.854L47.985 120.854C47.985 120.854 49.8677 117.659 51.7336 115.625C51.7336 115.625 48.5108 119.928 48.3977 121.688L55.2447 122.408Z" fill="url(#paint9_linear)"/>
<path d="M59.152 104.242C59.1125 104.374 58.1569 107.58 58.0834 107.642C58.0099 107.711 55.9858 107.82 55.0303 107.162L56.9752 102.813L59.152 104.242Z" fill="url(#paint10_linear)"/>
<path d="M61.4808 123.655L59.0214 120.952L56.1831 121.723C56.1831 121.723 52.8755 122.243 50.9814 121.723C49.0873 121.203 49.0873 121.203 49.0873 121.203L44.8073 119.854L44.1344 121.775C43.9648 122.26 44.1344 122.803 44.5528 123.1C44.9203 123.369 45.3557 123.66 45.6327 123.78C46.1981 124.032 58.6199 123.86 58.6199 123.86L61.4808 123.655Z" fill="url(#paint11_linear)"/>
<path d="M53.3409 124.724C53.3522 124.724 53.3579 124.724 53.3692 124.724L64.6772 124.712C64.9542 124.712 65.1804 124.484 65.1804 124.198C65.1804 123.918 64.9542 123.684 64.6715 123.69L53.3636 123.701C53.0865 123.701 52.8604 123.93 52.8604 124.215C52.866 124.489 53.0752 124.712 53.3409 124.724Z" fill="url(#paint12_linear)"/>
<path d="M74.8374 114.352H65.4235C64.7281 114.352 64.0948 114.757 63.8008 115.392L59.4473 124.718H71.151C71.5977 124.718 71.9991 124.444 72.1631 124.021L75.5385 115.386C75.7307 114.889 75.3689 114.352 74.8374 114.352Z" fill="url(#paint13_linear)"/>
<path d="M68.2064 119.135C68.0029 119.775 68.1555 120.398 68.5457 120.523C68.9358 120.649 69.4164 120.232 69.6199 119.592C69.8235 118.952 69.6708 118.329 69.2807 118.203C68.8906 118.078 68.41 118.489 68.2064 119.135Z" fill="#91B3FA"/>
<path d="M60.96 99.8884C60.96 99.8884 61.8194 101.443 61.2484 104.003C60.6773 106.563 59.36 106.911 58.4497 106.386C57.5394 105.86 56.3351 104.877 55.9733 102.649C55.6114 100.42 59.7953 97.9226 60.96 99.8884Z" fill="url(#paint14_linear)"/>
<path d="M57.6087 102.334C57.6087 102.334 58.7564 98.8363 61.1819 100.693L61.4364 101.539C61.4364 101.539 63.4887 100.716 62.6011 98.8534C61.7134 96.9905 59.5593 96.2534 57.4221 97.7391C55.2849 99.2249 54.1654 100.459 54.4594 102.208C54.7591 103.956 56.0029 103.219 56.0029 103.219C56.0029 103.219 56.1273 101.899 56.7153 101.608C57.3033 101.316 57.3881 102.299 57.3881 102.299L57.6087 102.334Z" fill="url(#paint15_linear)"/>
<path d="M57.1034 102.424C57.1034 102.424 57.7022 100.63 56.6175 100.676C55.5327 100.721 56.1429 102.396 56.4197 103.001L57.1034 102.424Z" fill="url(#paint16_linear)"/>
<path d="M85.7612 92.4087H129.421C130.66 92.4087 131.666 91.5687 131.666 90.5286V71.0476C131.666 69.9675 130.58 69.1103 129.291 69.1732L85.6312 71.3161C84.4439 71.3733 83.5166 72.1962 83.5166 73.1905V90.5286C83.5166 91.5687 84.523 92.4087 85.7612 92.4087Z" fill="url(#paint17_linear)"/>
<path d="M94.8193 92.4248L104.878 98.6365V92.4248H94.8193Z" fill="url(#paint18_linear)"/>
<path d="M94.2306 77.8154V81.1413H98.0357V77.8154H99.0648V85.7644H98.0357V82.0385H94.2306V85.7644H93.2129V77.8154H94.2306Z" fill="white"/>
<path d="M104.901 82.0377H101.842V84.9064H105.251V85.7693H100.83V77.8203H105.076V78.6832H101.842V81.1976H104.901V82.0377Z" fill="white"/>
<path d="M106.567 77.8154H107.585V84.9072H110.944V85.7701H106.567V77.8154Z" fill="white"/>
<path d="M112.075 77.8154H113.093V84.9072H116.451V85.7701H112.075V77.8154Z" fill="white"/>
<path d="M123.853 81.7067C123.853 84.4439 122.208 85.8954 120.201 85.8954C118.126 85.8954 116.667 84.2668 116.667 81.8609C116.667 79.3351 118.222 77.6836 120.319 77.6836C122.462 77.6836 123.853 79.3465 123.853 81.7067ZM117.747 81.8381C117.747 83.5353 118.657 85.0554 120.257 85.0554C121.869 85.0554 122.779 83.5582 122.779 81.7524C122.779 80.1694 121.965 78.5179 120.269 78.5179C118.589 78.5236 117.747 80.0894 117.747 81.8381Z" fill="white"/>
<path d="M124.932 85.1644C124.932 84.7415 125.226 84.4329 125.621 84.4329C126.04 84.4329 126.311 84.7415 126.311 85.1644C126.311 85.5758 126.045 85.8958 125.621 85.8958C125.214 85.8958 124.932 85.5758 124.932 85.1644ZM125.226 83.4786L125.062 77.8154H126.181L126.017 83.4786H125.226Z" fill="white"/>
<path d="M130.206 60.1849H165.396C166.397 60.1849 167.205 59.3449 167.205 58.3048V38.8239C167.205 37.7439 166.329 36.8867 165.289 36.9495L130.098 39.0925C129.143 39.1496 128.396 39.9725 128.396 40.9669V58.3048C128.396 59.3449 129.205 60.1849 130.206 60.1849Z" fill="url(#paint19_linear)"/>
<path d="M139.699 60.1963L149.758 66.6995V60.1963H139.699Z" fill="url(#paint20_linear)"/>
<path d="M138.093 43.989C138.053 44.1033 137.929 44.1662 137.742 44.1547C137.414 45.1262 137.03 46.1148 136.6 47.0463L137.075 47.1606C137.052 47.2863 136.95 47.3778 136.736 47.4063V55.5153L135.237 55.5495V49.5721C134.96 50.0122 134.666 50.4293 134.378 50.7893C134.174 50.4465 133.728 49.7721 133.462 49.4407C134.593 48.0921 135.707 45.7091 136.362 43.4404L138.093 43.989ZM145.318 45.7377C145.318 45.8005 145.16 47.2749 144.781 48.8235L143.877 48.6692C144.572 49.995 145.171 51.7151 145.386 52.8809L143.984 53.4352C143.814 52.2637 143.215 50.4693 142.548 49.1378L143.826 48.6578L143.532 48.6121C143.594 48.2178 143.656 47.6749 143.73 47.1206L142.22 47.132V53.6866C142.22 54.8524 141.971 55.401 139.823 55.4524C139.749 55.0067 139.523 54.3266 139.314 53.9266C139.834 53.9266 140.371 53.9152 140.541 53.9152C140.699 53.9095 140.75 53.858 140.75 53.6923V47.1435L139.421 47.1549C139.02 48.0464 138.573 48.8578 138.076 49.4978C137.815 49.2178 137.273 48.7664 136.933 48.5378C137.861 47.4063 138.624 45.4119 139.037 43.4747L140.778 43.9433C140.739 44.0462 140.631 44.1205 140.445 44.109C140.309 44.6576 140.145 45.2005 139.958 45.7377L144.527 45.7148L145.318 45.7377ZM140.411 49.2521C140.388 49.355 140.264 49.4178 140.1 49.4236C139.727 50.9151 139.093 52.5666 138.358 53.6123C138.07 53.3895 137.521 53.0523 137.182 52.8809C137.883 51.9494 138.46 50.3322 138.771 48.8407L140.411 49.2521Z" fill="white"/>
<path d="M151.019 45.8977L151.777 46.0806L151.703 46.332C151.562 48.4464 151.251 50.1894 150.708 51.5895C151.245 52.0409 151.72 52.4924 152.014 52.881L151.161 54.1039C150.9 53.7496 150.516 53.3438 150.075 52.9324C149.515 53.9153 148.786 54.6811 147.881 55.2868C147.689 54.9154 147.316 54.3839 147.01 54.1153C147.819 53.6467 148.481 52.9324 148.995 52.0009C148.78 51.818 148.554 51.658 148.334 51.4866L148.237 51.8866L147.056 51.2694C147.333 50.2237 147.632 48.8064 147.926 47.3378L146.977 47.3435V45.9491L148.181 45.9434C148.339 45.0691 148.481 44.2176 148.599 43.4404L150.228 43.6176C150.216 43.7319 150.12 43.8062 149.917 43.8176C149.798 44.4633 149.668 45.1891 149.521 45.9377L150.776 45.932L151.019 45.8977ZM149.255 47.3321C149.063 48.2693 148.859 49.2236 148.667 50.0979C148.955 50.2808 149.266 50.4865 149.577 50.7094C149.911 49.7436 150.148 48.6064 150.295 47.3264L149.255 47.3321ZM158.053 48.8179V50.218L155.497 50.2522V53.4296C155.497 54.6525 155.101 55.1039 152.902 55.1325C152.828 54.7268 152.597 54.0867 152.404 53.681C152.84 53.6867 153.303 53.6867 153.586 53.681C153.988 53.6753 154.078 53.6696 154.078 53.4467V50.2694L151.562 50.3037V48.8864L154.078 48.8579V46.9549L154.513 46.9778C154.909 46.5435 155.311 45.972 155.65 45.4291L151.992 45.4463V44.069L156.662 44.0633L156.894 43.989L157.974 44.6748C157.928 44.7605 157.81 44.8234 157.697 44.8462C157.154 45.7091 156.306 46.8578 155.497 47.675V48.8464L158.053 48.8179Z" fill="white"/>
<path d="M159.843 52.8695C159.843 52.2124 160.267 51.738 160.849 51.7266C161.443 51.7152 161.85 52.1724 161.85 52.8295C161.85 53.4638 161.465 53.9439 160.849 53.961C160.233 53.9724 159.843 53.4924 159.843 52.8695ZM161.511 50.8523L160.188 50.8752L159.956 44.452L161.737 44.4463L161.511 50.8523Z" fill="white"/>
<path d="M68.8219 78.1568H33.6315C32.6308 78.1568 31.8223 77.4139 31.8223 76.4938V59.253C31.8223 58.2987 32.6986 57.5387 33.739 57.5958L68.9293 59.493C69.8848 59.5445 70.6312 60.2702 70.6312 61.1502V76.4938C70.6312 77.4139 69.8226 78.1568 68.8219 78.1568Z" fill="url(#paint21_linear)"/>
<path d="M59.329 77.9736L49.2705 83.7282V77.9736H59.329Z" fill="url(#paint22_linear)"/>
<path d="M39.2111 65.0361V68.362H43.0162V65.0361H44.0452V72.9851H43.0162V69.2592H39.2111V72.9851H38.1934V65.0361H39.2111Z" fill="white"/>
<path d="M52.525 68.9342C52.525 71.6715 50.8797 73.123 48.8726 73.123C46.7976 73.123 45.3389 71.4943 45.3389 69.0885C45.3389 66.5626 46.8937 64.9111 48.9913 64.9111C51.1398 64.9111 52.525 66.5741 52.525 68.9342ZM46.4244 69.0599C46.4244 70.7571 47.3347 72.2772 48.9348 72.2772C50.5461 72.2772 51.4564 70.78 51.4564 68.9742C51.4564 67.3913 50.6366 65.7397 48.9461 65.7397C47.2612 65.7455 46.4244 67.317 46.4244 69.0599Z" fill="white"/>
<path d="M53.8438 65.0361H54.8615V72.1279H58.2199V72.9908H53.8438V65.0361Z" fill="white"/>
<path d="M60.6224 70.488L59.8026 72.991H58.751L61.4253 65.042H62.6522L65.3379 72.991H64.2523L63.4099 70.488H60.6224ZM63.2063 69.6879L62.4374 67.4021C62.2621 66.8821 62.1434 66.4135 62.0303 65.9506H62.0077C61.8889 66.4249 61.7646 66.9049 61.6119 67.3907L60.843 69.6937H63.2063V69.6879Z" fill="white"/>
<path d="M66.2598 72.3851C66.2598 71.9622 66.5538 71.6536 66.9496 71.6536C67.3679 71.6536 67.6393 71.9622 67.6393 72.3851C67.6393 72.7965 67.3736 73.1165 66.9496 73.1165C66.5425 73.1165 66.2598 72.8022 66.2598 72.3851ZM66.5538 70.6993L66.3898 65.0361H67.5093L67.3453 70.6993H66.5538Z" fill="white"/>
<path d="M140.696 104.369C140.967 104.101 140.956 103.661 140.668 103.409L106.953 72.9964C106.857 72.9107 106.721 72.8935 106.608 72.9449C106.41 73.0421 106.365 73.3107 106.529 73.465L139.808 104.375C140.063 104.615 140.453 104.609 140.696 104.369Z" fill="url(#paint23_linear)"/>
<path d="M160.417 179.235C160.417 179.189 160.417 179.138 160.434 179.086C161.158 176.195 164.737 174.395 164.737 174.395L166.156 174.509C166.97 177.058 166.868 178.623 166.738 179.321C166.733 179.338 166.727 179.361 166.721 179.378C165.551 179.475 163.137 179.544 160.417 179.235Z" fill="url(#paint24_linear)"/>
<path d="M166.72 179.372C166.658 179.607 166.488 179.784 166.268 179.829C164.6 180.184 161.954 179.898 160.84 179.749C160.597 179.715 160.416 179.487 160.41 179.229C163.135 179.544 165.55 179.475 166.72 179.372Z" fill="url(#paint25_linear)"/>
<path d="M172.34 128.033C173.217 128.982 174.506 129.799 175.416 130.308C174.059 132.005 172.222 133.702 169.796 135.359L169.101 136.936L166.873 134.239C166.867 134.239 170.87 132.228 172.34 128.033Z" fill="url(#paint26_linear)"/>
<path d="M166.727 172.367L166.128 175.293C166.083 175.51 165.919 175.67 165.721 175.687C165.478 175.71 165.133 175.722 164.788 175.67C164.477 175.624 164.262 175.304 164.319 174.962L164.737 172.361H166.727V172.367Z" fill="url(#paint27_linear)"/>
<path d="M154.264 179.344C155.831 179.299 156.645 179.116 157.063 178.938C157.063 179.098 157.063 179.258 157.058 179.424C157.052 179.601 156.922 179.744 156.764 179.744L148.152 179.687C147.875 179.687 147.717 179.361 147.836 179.11C148.967 179.201 151.845 179.413 154.264 179.344Z" fill="url(#paint28_linear)"/>
<path d="M147.841 179.104C147.852 179.081 147.858 179.058 147.875 179.041C148.632 177.967 150.572 175.83 154.399 174.904L156.237 174.847C156.237 174.847 157.057 176.281 157.068 178.944C156.65 179.115 155.836 179.304 154.269 179.35C151.844 179.412 148.966 179.201 147.841 179.104Z" fill="url(#paint29_linear)"/>
<path d="M156.572 172.029C156.549 172.166 156.3 174.269 156.204 175.086C156.182 175.281 156.04 175.429 155.865 175.452C155.554 175.492 155.045 175.526 154.604 175.435C154.367 175.383 154.191 175.155 154.191 174.886V171.589L156.572 172.029Z" fill="url(#paint30_linear)"/>
<path d="M158.048 133.674C158.048 133.674 153.621 150.68 153.7 172.076C153.7 172.464 153.972 172.802 154.35 172.882C154.905 173.002 155.724 173.139 156.403 173.122C156.765 173.11 157.064 172.842 157.127 172.482C157.749 168.801 161.311 148.074 163.34 144.709C163.34 144.709 164.675 163.167 164.251 172.744C164.239 172.984 164.415 173.19 164.646 173.219C165.003 173.259 165.568 173.293 166.292 173.213C166.569 173.184 166.789 172.973 166.829 172.699C167.27 169.584 169.814 151.052 169.707 137.697C169.701 136.942 167.739 133.668 167.739 133.668H158.048V133.674Z" fill="url(#paint31_linear)"/>
<path d="M151.257 110.775C152.031 108.775 153.338 107.403 154.655 105.814C159.585 106.717 167.659 107.523 171.029 107.952C172.081 108.083 173.042 108.609 173.737 109.42C176.485 112.638 182.518 121.438 175.416 130.307C174.506 129.799 173.217 128.981 172.341 128.033C173.126 125.793 173.189 122.935 171.543 119.427C171.487 119.707 171.419 119.981 171.334 120.249C169.067 127.513 168.943 133.559 168.948 134.953C168.948 135.142 168.835 135.313 168.665 135.382C165.68 136.593 159.93 135.873 158.002 135.582C157.646 135.53 157.408 135.193 157.459 134.839C158.404 127.907 153.547 116.501 152.263 113.643C152.077 113.226 151.743 112.889 151.33 112.701C151.121 112.603 150.918 112.506 150.72 112.409C150.872 111.86 151.048 111.312 151.257 110.775Z" fill="url(#paint32_linear)"/>
<path d="M165.867 101.284L166.217 107.484C166.228 107.667 166.11 107.833 165.934 107.879C165.154 108.079 163.006 108.473 161.134 107.393C160.891 107.256 160.778 106.958 160.857 106.69L162.423 101.118L165.867 101.284Z" fill="url(#paint33_linear)"/>
<path d="M162.033 94.5101C161.954 94.5844 158.675 101.093 158.675 101.093L162.389 102.905L166.404 97.2017C166.404 97.2074 163.362 93.2415 162.033 94.5101Z" fill="url(#paint34_linear)"/>
<path d="M164.758 97.3621C164.826 97.5336 164.809 97.7278 164.713 97.8879L162.859 101.014C162.83 101.059 162.796 101.105 162.757 101.139C162.536 101.345 161.779 101.951 161.196 101.128C160.699 100.425 160.229 99.7908 159.732 99.5279C159.438 99.3736 159.082 99.4994 158.935 99.7965C158.629 100.408 158.036 101.654 157.668 102.837C157.578 103.134 157.725 103.454 158.013 103.568C158.765 103.877 160.252 104.431 161.575 104.62C161.79 104.648 162.005 104.557 162.135 104.38C162.7 103.591 164.306 101.397 164.849 100.848C165.358 100.339 166.29 100.528 166.715 100.654C166.873 100.699 167.048 100.677 167.189 100.591C167.619 100.328 168.365 99.6822 167.681 98.5793C167.512 98.305 167.597 97.9393 167.862 97.7621C168.343 97.4421 168.857 96.8478 168.365 95.882C167.862 94.9049 166.969 94.8134 166.364 94.8934C166.093 94.9277 165.821 94.7849 165.719 94.5277C165.674 94.4134 165.584 94.3163 165.414 94.282C165.097 94.2191 164.888 93.922 164.95 93.5962C165.058 93.0419 164.979 92.3219 164.102 91.8361C162.497 90.9447 161.094 92.3962 160.738 93.6248C160.382 94.8534 162.174 95.7163 163.305 95.8592C164.119 95.9735 164.577 96.8878 164.758 97.3621Z" fill="url(#paint35_linear)"/>
<path d="M164.149 101.993C164.149 101.993 164.862 99.8847 165.778 99.9589C166.688 100.039 167.412 100.953 166.275 101.988C164.867 103.279 164.149 101.993 164.149 101.993Z" fill="url(#paint36_linear)"/>
<path d="M171.842 118.889C173.045 115.563 172.61 111.54 172.604 111.5L172.271 111.54C172.277 111.58 172.7 115.523 171.525 118.775L171.842 118.889Z" fill="url(#paint37_linear)"/>
<path d="M163.498 144.279C163.571 144.279 163.639 144.227 163.662 144.153C164.029 142.724 166.777 141.147 166.805 141.136C166.885 141.09 166.913 140.987 166.868 140.907C166.822 140.827 166.721 140.798 166.641 140.844C166.523 140.913 163.741 142.501 163.339 144.073C163.317 144.164 163.368 144.256 163.458 144.279C163.475 144.279 163.486 144.279 163.498 144.279Z" fill="url(#paint38_linear)"/>
<path d="M139.981 107.741C144.669 109.473 154.653 105.815 154.653 105.815L155.343 114.062C147.348 116.616 142.141 115.873 138.76 113.73C138.545 111.29 139.269 109.17 139.981 107.741Z" fill="url(#paint39_linear)"/>
<path d="M132.521 99.2254L134.482 98.8311C134.482 98.8311 135.02 105.14 139.384 107.472C139.571 107.569 139.769 107.66 139.984 107.734C139.271 109.163 138.548 111.289 138.757 113.723C131.882 109.369 132.521 99.2254 132.521 99.2254Z" fill="url(#paint40_linear)"/>
<path d="M134.385 99.3858L134.487 98.8372C134.487 98.8372 134.894 97.4943 133.814 96.1742C132.248 94.2656 131.105 94.9685 131.105 94.9685C131.105 94.9685 131.185 95.3799 131.179 95.7399C131.173 96.0314 130.828 96.18 130.614 95.9799L128.064 93.6084C128.064 93.6084 127.351 97.3743 132.824 99.963L134.385 99.3858Z" fill="url(#paint41_linear)"/>
<defs>
<linearGradient id="paint0_linear" x1="188.217" y1="180.516" x2="73.6511" y2="81.3345" gradientUnits="userSpaceOnUse">
<stop stop-color="#DAE3FE"/>
<stop offset="1" stop-color="#E9EFFD"/>
</linearGradient>
<linearGradient id="paint1_linear" x1="145.914" y1="38.9968" x2="105.195" y2="104.992" gradientUnits="userSpaceOnUse">
<stop stop-color="#09005D"/>
<stop offset="1" stop-color="#1A0F91"/>
</linearGradient>
<linearGradient id="paint2_linear" x1="73.4375" y1="119.252" x2="72.4489" y2="158.866" gradientUnits="userSpaceOnUse">
<stop stop-color="#4F52FF"/>
<stop offset="1" stop-color="#4042E2"/>
</linearGradient>
<linearGradient id="paint3_linear" x1="62.8713" y1="101.212" x2="37.2524" y2="114.305" gradientUnits="userSpaceOnUse">
<stop stop-color="#09005D"/>
<stop offset="1" stop-color="#1A0F91"/>
</linearGradient>
<linearGradient id="paint4_linear" x1="81.2424" y1="127.704" x2="63.671" y2="137.627" gradientUnits="userSpaceOnUse">
<stop stop-color="#FEBBBA"/>
<stop offset="1" stop-color="#FF928E"/>
</linearGradient>
<linearGradient id="paint5_linear" x1="78.5593" y1="239.775" x2="80.7401" y2="329.853" gradientUnits="userSpaceOnUse">
<stop stop-color="#09005D"/>
<stop offset="1" stop-color="#1A0F91"/>
</linearGradient>
<linearGradient id="paint6_linear" x1="79.5514" y1="130.219" x2="139.718" y2="92.9533" gradientUnits="userSpaceOnUse">
<stop stop-color="#FEBBBA"/>
<stop offset="1" stop-color="#FF928E"/>
</linearGradient>
<linearGradient id="paint7_linear" x1="-49.8295" y1="825.779" x2="-66.1107" y2="914.365" gradientUnits="userSpaceOnUse">
<stop stop-color="#09005D"/>
<stop offset="1" stop-color="#1A0F91"/>
</linearGradient>
<linearGradient id="paint8_linear" x1="60.9296" y1="116.695" x2="39.0453" y2="155.835" gradientUnits="userSpaceOnUse">
<stop stop-color="#09005D"/>
<stop offset="1" stop-color="#1A0F91"/>
</linearGradient>
<linearGradient id="paint9_linear" x1="95.347" y1="70.3676" x2="70.1469" y2="97.3068" gradientUnits="userSpaceOnUse">
<stop stop-color="#FF928E"/>
<stop offset="1" stop-color="#FE7062"/>
</linearGradient>
<linearGradient id="paint10_linear" x1="56.1079" y1="112.071" x2="57.3206" y2="104.372" gradientUnits="userSpaceOnUse">
<stop stop-color="#FEBBBA"/>
<stop offset="1" stop-color="#FF928E"/>
</linearGradient>
<linearGradient id="paint11_linear" x1="50.6252" y1="121.891" x2="33.2122" y2="121.891" gradientUnits="userSpaceOnUse">
<stop stop-color="#FEBBBA"/>
<stop offset="1" stop-color="#FF928E"/>
</linearGradient>
<linearGradient id="paint12_linear" x1="51.4255" y1="121.689" x2="60.4186" y2="124.607" gradientUnits="userSpaceOnUse">
<stop stop-color="#4F52FF"/>
<stop offset="1" stop-color="#4042E2"/>
</linearGradient>
<linearGradient id="paint13_linear" x1="63.7545" y1="115.74" x2="70.2907" y2="122.575" gradientUnits="userSpaceOnUse">
<stop stop-color="#09005D"/>
<stop offset="1" stop-color="#1A0F91"/>
</linearGradient>
<linearGradient id="paint14_linear" x1="57.7606" y1="108.768" x2="60.5672" y2="90.4519" gradientUnits="userSpaceOnUse">
<stop stop-color="#FEBBBA"/>
<stop offset="1" stop-color="#FF928E"/>
</linearGradient>
<linearGradient id="paint15_linear" x1="62.7104" y1="97.9087" x2="35.9513" y2="111.584" gradientUnits="userSpaceOnUse">
<stop stop-color="#09005D"/>
<stop offset="1" stop-color="#1A0F91"/>
</linearGradient>
<linearGradient id="paint16_linear" x1="55.5924" y1="108.434" x2="58.4008" y2="90.1195" gradientUnits="userSpaceOnUse">
<stop stop-color="#FEBBBA"/>
<stop offset="1" stop-color="#FF928E"/>
</linearGradient>
<linearGradient id="paint17_linear" x1="23.6079" y1="488.917" x2="32.1818" y2="448.238" gradientUnits="userSpaceOnUse">
<stop stop-color="#FF928E"/>
<stop offset="1" stop-color="#FE7062"/>
</linearGradient>
<linearGradient id="paint18_linear" x1="18.8927" y1="487.92" x2="27.4665" y2="447.24" gradientUnits="userSpaceOnUse">
<stop stop-color="#FF928E"/>
<stop offset="1" stop-color="#FE7062"/>
</linearGradient>
<linearGradient id="paint19_linear" x1="-196.596" y1="706.026" x2="-223.772" y2="756.729" gradientUnits="userSpaceOnUse">
<stop stop-color="#FF928E"/>
<stop offset="1" stop-color="#FE7062"/>
</linearGradient>
<linearGradient id="paint20_linear" x1="-193.338" y1="707.778" x2="-220.515" y2="758.482" gradientUnits="userSpaceOnUse">
<stop stop-color="#FF928E"/>
<stop offset="1" stop-color="#FE7062"/>
</linearGradient>
<linearGradient id="paint21_linear" x1="51.2285" y1="55.1328" x2="51.2285" y2="102.602" gradientUnits="userSpaceOnUse">
<stop stop-color="#FF928E"/>
<stop offset="1" stop-color="#FE7062"/>
</linearGradient>
<linearGradient id="paint22_linear" x1="54.3" y1="55.1324" x2="54.3" y2="102.602" gradientUnits="userSpaceOnUse">
<stop stop-color="#FF928E"/>
<stop offset="1" stop-color="#FE7062"/>
</linearGradient>
<linearGradient id="paint23_linear" x1="119.702" y1="80.088" x2="162.045" y2="168.476" gradientUnits="userSpaceOnUse">
<stop stop-color="#09005D"/>
<stop offset="1" stop-color="#1A0F91"/>
</linearGradient>
<linearGradient id="paint24_linear" x1="166.824" y1="176.926" x2="160.415" y2="176.926" gradientUnits="userSpaceOnUse">
<stop stop-color="#09005D"/>
<stop offset="1" stop-color="#1A0F91"/>
</linearGradient>
<linearGradient id="paint25_linear" x1="150.779" y1="169.286" x2="174.28" y2="187.546" gradientUnits="userSpaceOnUse">
<stop stop-color="#4F52FF"/>
<stop offset="1" stop-color="#4042E2"/>
</linearGradient>
<linearGradient id="paint26_linear" x1="175.416" y1="132.486" x2="166.87" y2="132.486" gradientUnits="userSpaceOnUse">
<stop stop-color="#FEBBBA"/>
<stop offset="1" stop-color="#FF928E"/>
</linearGradient>
<linearGradient id="paint27_linear" x1="165.042" y1="169.553" x2="166.292" y2="180.348" gradientUnits="userSpaceOnUse">
<stop stop-color="#FEBBBA"/>
<stop offset="1" stop-color="#FF928E"/>
</linearGradient>
<linearGradient id="paint28_linear" x1="146.638" y1="174.616" x2="170.141" y2="192.876" gradientUnits="userSpaceOnUse">
<stop stop-color="#4F52FF"/>
<stop offset="1" stop-color="#4042E2"/>
</linearGradient>
<linearGradient id="paint29_linear" x1="157.064" y1="177.099" x2="147.839" y2="177.099" gradientUnits="userSpaceOnUse">
<stop stop-color="#09005D"/>
<stop offset="1" stop-color="#1A0F91"/>
</linearGradient>
<linearGradient id="paint30_linear" x1="155.07" y1="170.707" x2="156.32" y2="181.502" gradientUnits="userSpaceOnUse">
<stop stop-color="#FEBBBA"/>
<stop offset="1" stop-color="#FF928E"/>
</linearGradient>
<linearGradient id="paint31_linear" x1="140.526" y1="121.331" x2="180.27" y2="182.35" gradientUnits="userSpaceOnUse">
<stop stop-color="#4F52FF"/>
<stop offset="1" stop-color="#4042E2"/>
</linearGradient>
<linearGradient id="paint32_linear" x1="-1180" y1="961.847" x2="-1117.78" y2="923.657" gradientUnits="userSpaceOnUse">
<stop stop-color="#FF928E"/>
<stop offset="1" stop-color="#FE7062"/>
</linearGradient>
<linearGradient id="paint33_linear" x1="162.317" y1="99.5909" x2="167.441" y2="121.501" gradientUnits="userSpaceOnUse">
<stop stop-color="#FEBBBA"/>
<stop offset="1" stop-color="#FF928E"/>
</linearGradient>
<linearGradient id="paint34_linear" x1="163.111" y1="95.7394" x2="160.759" y2="109.433" gradientUnits="userSpaceOnUse">
<stop stop-color="#FEBBBA"/>
<stop offset="1" stop-color="#FF928E"/>
</linearGradient>
<linearGradient id="paint35_linear" x1="165.533" y1="102.225" x2="158.668" y2="95.009" gradientUnits="userSpaceOnUse">
<stop stop-color="#09005D"/>
<stop offset="1" stop-color="#1A0F91"/>
</linearGradient>
<linearGradient id="paint36_linear" x1="165.112" y1="110.697" x2="165.53" y2="101.076" gradientUnits="userSpaceOnUse">
<stop stop-color="#FEBBBA"/>
<stop offset="1" stop-color="#FF928E"/>
</linearGradient>
<linearGradient id="paint37_linear" x1="205.493" y1="74.5816" x2="145.938" y2="145.304" gradientUnits="userSpaceOnUse">
<stop stop-color="#E1473D"/>
<stop offset="1" stop-color="#E9605A"/>
</linearGradient>
<linearGradient id="paint38_linear" x1="159.008" y1="78.6551" x2="163.103" y2="120.615" gradientUnits="userSpaceOnUse">
<stop stop-color="#09005D"/>
<stop offset="1" stop-color="#1A0F91"/>
</linearGradient>
<linearGradient id="paint39_linear" x1="-1188.18" y1="948.508" x2="-1125.96" y2="910.318" gradientUnits="userSpaceOnUse">
<stop stop-color="#FF928E"/>
<stop offset="1" stop-color="#FE7062"/>
</linearGradient>
<linearGradient id="paint40_linear" x1="132.096" y1="91.7587" x2="137.253" y2="108.432" gradientUnits="userSpaceOnUse">
<stop stop-color="#FEBBBA"/>
<stop offset="1" stop-color="#FF928E"/>
</linearGradient>
<linearGradient id="paint41_linear" x1="130.126" y1="92.3682" x2="135.282" y2="109.042" gradientUnits="userSpaceOnUse">
<stop stop-color="#FEBBBA"/>
<stop offset="1" stop-color="#FF928E"/>
</linearGradient>
</defs>
</svg>
