<svg width="200" height="200" viewBox="0 0 200 200" fill="none" xmlns="http://www.w3.org/2000/svg">
<path d="M160.751 157.606C156.586 161.924 152.861 164.466 150.004 166.381C122.181 185.08 90.3696 179.692 80.5371 177.847C64.6714 174.874 51.2796 172.781 39.7731 162.315C13.6236 138.538 14.8977 88.9426 34.8769 58.2135C37.2479 54.5793 57.1928 24.8163 89.0727 20.6244C89.8497 20.5209 90.4325 20.4634 90.9409 20.4116C95.8715 19.8826 126.432 17.1052 151.347 38.1165C154.912 41.1239 160.654 46.5463 165.979 54.8209C185.438 85.0785 185.501 131.931 160.751 157.606Z" fill="url(#paint0_linear)"/>
<path d="M26.2378 29.1922C25.9979 28.3412 24.8038 28.3182 24.5124 29.1519C21.5587 37.6335 16.1254 61.2381 34.3392 87.9881C57.1922 121.552 56.5295 138.509 51.4161 151.321C51.4161 151.321 62.157 140.936 63.2768 123.49C66.0363 80.6623 30.5513 44.321 26.2378 29.1922Z" fill="#BDD0FB"/>
<path d="M27.6268 42.688C28.9637 47.0582 30.3863 51.3938 31.9689 55.672C33.5229 59.9616 35.2083 64.1995 37.0251 68.3742C38.8533 72.5488 40.7616 76.6832 42.8412 80.7314C44.9037 84.791 47.1318 88.7529 49.3886 92.7263C51.6167 96.7112 53.8906 100.708 55.7588 104.957C57.6271 109.195 59.0268 113.72 59.5582 118.372C59.6896 119.534 59.8038 120.701 59.8438 121.863C59.9067 123.024 59.9181 124.186 59.9124 125.353C59.8838 127.682 59.701 130.011 59.3525 132.317C58.6326 136.928 57.2214 141.425 55.2732 145.628C55.0675 146.071 54.5476 146.261 54.1077 146.054C53.6792 145.853 53.485 145.341 53.6735 144.904V144.898C54.1191 143.863 54.5533 142.822 54.9361 141.77C55.1361 141.247 55.3132 140.712 55.5017 140.183C55.6674 139.648 55.856 139.119 56.0102 138.578C56.6501 136.428 57.1357 134.237 57.4614 132.023C58.1298 127.596 58.147 123.047 57.6442 118.608C57.37 116.388 56.9301 114.192 56.3244 112.041C55.7188 109.885 54.9476 107.78 54.0563 105.71C52.2738 101.576 50.057 97.5967 47.8574 93.5946C45.6578 89.5925 43.4811 85.5558 41.4643 81.4329C40.4531 79.3743 39.4761 77.2985 38.5391 75.2054C38.0649 74.1646 37.6079 73.1124 37.1565 72.0601C36.7109 71.002 36.271 69.944 35.8368 68.886C34.1171 64.6365 32.5288 60.3354 31.0776 55.9882C29.6436 51.6353 28.3295 47.2479 27.1812 42.8145C27.1469 42.688 27.2212 42.5557 27.3526 42.527C27.4668 42.4925 27.5925 42.5672 27.6268 42.688Z" fill="white"/>
<path d="M62.6377 125.997C63.7632 127.17 65.7114 126.808 66.3627 125.313C69.962 117.079 78.0349 92.8647 63.946 65.2349C52.0453 41.9006 47.7947 28.1116 46.2978 21.7173C45.9836 20.366 44.1325 20.205 43.5897 21.4816C37.5965 35.5753 21.8965 83.4573 62.6377 125.997Z" fill="#91B3FA"/>
<path d="M64.643 125.106C64.683 125.112 64.723 125.118 64.763 125.112C65.1115 125.101 65.3857 124.813 65.38 124.457C65.3686 124.06 64.1574 84.234 49.063 51.038C48.9202 50.716 48.5431 50.578 48.2232 50.7218C47.9032 50.8655 47.7661 51.2451 47.9089 51.5671C62.8948 84.533 64.106 124.1 64.1174 124.497C64.1231 124.807 64.3516 125.06 64.643 125.106Z" fill="white"/>
<path d="M30.0149 149.746C32.1859 127.682 37.6249 72.871 38.8133 64.861C40.3044 54.7924 52.565 57.0177 52.565 57.0177L55.1874 158.906H38.0991C35.8024 158.906 33.6142 157.911 32.0716 156.163C30.5291 154.409 29.7806 152.086 30.0149 149.746Z" fill="url(#paint1_linear)"/>
<path d="M168.291 161.469C173.627 161.354 177.861 156.909 177.752 151.538L176.01 68.8218C175.913 64.2561 172.279 60.5702 167.749 60.438L48.4674 56.8728C44.9195 56.7693 41.9886 59.6387 42 63.2096L42.2857 158.048C42.2971 161.406 45.0395 164.097 48.3703 164.028L168.291 161.469Z" fill="url(#paint2_linear)"/>
<path d="M175.976 154.528C177.685 154.5 178.976 152.964 178.707 151.262C176.948 139.998 171.423 101.259 173.194 69.0919C173.274 67.6256 172.143 66.3778 170.686 66.3318L50.8735 62.4849C49.2281 62.4332 47.8512 63.7212 47.7941 65.3773C47.2856 78.9017 45.3888 134.593 47.8683 154.385C48.0169 155.592 49.051 156.484 50.2565 156.466L175.976 154.528Z" fill="#BDD0FB"/>
<path d="M172.954 153.257C174.6 153.234 175.84 151.751 175.583 150.118C173.891 139.279 168.572 101.994 170.275 71.041C170.355 69.6322 169.264 68.4304 167.864 68.3844L52.5593 64.6812C50.9767 64.6295 49.6512 65.8715 49.5941 67.4643C49.1028 80.4771 47.2802 134.069 49.6684 153.125C49.8112 154.287 50.8053 155.144 51.9651 155.126L172.954 153.257Z" fill="#91B3FA"/>
<path opacity="0.72" d="M102.081 88.0516L102.258 96.4067C102.287 97.6832 101.27 98.7355 100.002 98.7413L91.4833 98.7873C90.2435 98.793 89.2266 97.7982 89.198 96.5504L89.0152 87.7641C88.9866 86.4416 90.0721 85.372 91.3862 85.4353L99.9103 85.8148C101.11 85.8723 102.059 86.8498 102.081 88.0516Z" fill="white"/>
<path opacity="0.72" d="M131.866 98.6711L123.347 98.7171C122.107 98.7228 121.09 97.728 121.062 96.4802L120.902 89.005C120.873 87.6939 121.947 86.6244 123.256 86.6704L131.78 86.9809C132.985 87.0269 133.945 88.0044 133.968 89.2177L134.117 96.3365C134.145 97.613 133.134 98.6653 131.866 98.6711Z" fill="white"/>
<path opacity="0.72" d="M124.398 135.904L132.499 135.823C133.859 135.812 134.973 136.899 135.002 138.261L135.162 145.898C135.19 147.255 134.133 148.388 132.791 148.439L124.695 148.784C123.307 148.842 122.141 147.744 122.113 146.346L121.947 138.445C121.918 137.06 123.021 135.915 124.398 135.904Z" fill="white"/>
<path opacity="0.72" d="M138.031 145.714L137.871 138.244C137.842 136.881 138.928 135.754 140.282 135.743L148.469 135.662C149.8 135.651 150.897 136.72 150.925 138.06L151.08 145.259C151.108 146.593 150.074 147.703 148.749 147.761L140.567 148.111C139.208 148.169 138.059 147.088 138.031 145.714Z" fill="white"/>
<path opacity="0.72" d="M137.321 112.006L137.19 105.877C137.161 104.399 138.344 103.18 139.812 103.186L147.628 103.197C149.051 103.197 150.21 104.347 150.245 105.779L150.37 111.638C150.399 113.082 149.273 114.283 147.834 114.329L140.024 114.588C138.567 114.634 137.35 113.473 137.321 112.006Z" fill="white"/>
<path opacity="0.72" d="M137.698 129.821L137.498 120.448C137.469 119.108 138.52 117.993 139.851 117.946L147.844 117.682C149.301 117.636 150.518 118.792 150.552 120.264L150.752 129.717C150.781 131.091 149.684 132.218 148.319 132.218H140.131C138.806 132.218 137.726 131.155 137.698 129.821Z" fill="white"/>
<path opacity="0.72" d="M115.937 98.7629L107.418 98.8089C106.178 98.8146 105.161 97.8199 105.133 96.5721L104.961 88.4298C104.933 87.1187 106.007 86.0492 107.315 86.0952L115.839 86.4057C117.045 86.4517 118.005 87.4292 118.028 88.6425L118.193 96.4283C118.216 97.7048 117.199 98.7571 115.937 98.7629Z" fill="white"/>
<path opacity="0.72" d="M121.763 129.78L121.581 121.011C121.552 119.642 122.62 118.509 123.974 118.463L132.07 118.199C133.447 118.153 134.601 119.251 134.63 120.637L134.818 129.67C134.847 131.068 133.733 132.218 132.339 132.218H124.237C122.895 132.218 121.792 131.137 121.763 129.78Z" fill="white"/>
<path opacity="0.72" d="M107.194 103.121L116.495 103.138C117.518 103.138 118.346 103.961 118.369 104.99L118.546 113.42C118.569 114.455 117.758 115.317 116.73 115.352L107.434 115.657C106.389 115.691 105.515 114.857 105.492 113.805L105.309 105.053C105.292 103.995 106.137 103.121 107.194 103.121Z" fill="white"/>
<path opacity="0.72" d="M102.447 105.44L102.618 113.467C102.647 114.767 101.63 115.854 100.333 115.894L92.003 116.17C90.6889 116.216 89.592 115.169 89.5634 113.847L89.3863 105.526C89.3577 104.192 90.4261 103.094 91.7516 103.1L100.087 103.117C101.373 103.117 102.424 104.146 102.447 105.44Z" fill="white"/>
<path opacity="0.72" d="M132.652 114.83L123.357 115.135C122.311 115.169 121.437 114.336 121.414 113.283L121.243 105.083C121.22 104.02 122.071 103.151 123.122 103.151L132.423 103.169C133.446 103.169 134.275 103.991 134.297 105.02L134.463 112.898C134.492 113.939 133.68 114.796 132.652 114.83Z" fill="white"/>
<path opacity="0.72" d="M108.057 118.988L116.153 118.723C117.53 118.677 118.684 119.775 118.713 121.161L118.89 129.671C118.918 131.069 117.804 132.219 116.41 132.219H108.309C106.96 132.219 105.858 131.132 105.829 129.781L105.658 121.535C105.629 120.172 106.698 119.034 108.057 118.988Z" fill="white"/>
<path opacity="0.72" d="M91.8556 119.521L100.523 119.234C101.745 119.193 102.762 120.165 102.791 121.396L102.974 129.964C103.002 131.2 102.008 132.218 100.78 132.218H92.107C90.9129 132.218 89.9359 131.257 89.9131 130.056L89.736 121.769C89.7074 120.568 90.6558 119.561 91.8556 119.521Z" fill="white"/>
<path opacity="0.72" d="M146.6 98.4754L140.133 98.5099C138.413 98.5214 137.002 97.1414 136.967 95.4106L136.853 90.0399C136.819 88.4183 138.144 87.1015 139.756 87.159L146.948 87.4178C148.582 87.4753 149.885 88.8094 149.919 90.4539L150.016 94.9391C150.062 96.8769 148.525 98.4639 146.6 98.4754Z" fill="white"/>
<path opacity="0.72" d="M153.803 138.286C153.775 136.819 154.94 135.606 156.397 135.594L159.214 135.566C161.356 135.543 163.104 136.969 163.144 138.763L163.253 143.95C163.293 145.726 161.63 147.216 159.511 147.308L156.488 147.434C155.123 147.492 153.98 146.411 153.952 145.036L153.803 138.286Z" fill="white"/>
<path opacity="0.72" d="M63.2483 136.496L68.7845 136.444C70.1442 136.433 71.2583 137.52 71.2869 138.888L71.4926 148.612C71.5211 149.969 70.4642 151.102 69.1158 151.159L63.6026 151.395C61.403 151.487 59.5576 150.044 59.5233 148.204L59.3462 139.866C59.3119 138.031 61.0659 136.519 63.2483 136.496Z" fill="white"/>
<path opacity="0.72" d="M158.991 132.218H156.243C154.814 132.218 153.655 131.074 153.62 129.636L153.42 120.108C153.392 118.665 154.517 117.463 155.957 117.417L158.722 117.325C160.905 117.25 162.722 118.688 162.756 120.516L162.933 128.854C162.973 130.694 161.19 132.218 158.991 132.218Z" fill="white"/>
<path opacity="0.72" d="M158.762 113.973L155.3 114.088C154.197 114.122 153.277 113.248 153.255 112.138L153.112 105.255C153.089 104.134 153.986 103.214 155.094 103.22L158.591 103.226C160.71 103.231 162.43 104.646 162.464 106.423L162.55 110.62C162.59 112.403 160.899 113.898 158.762 113.973Z" fill="white"/>
<path opacity="0.72" d="M62.3627 84.3643L67.916 84.5656C69.1672 84.6116 70.167 85.6294 70.1899 86.8887L70.3898 96.4916C70.4184 97.8199 69.3615 98.9124 68.0417 98.9181L62.3227 98.9526C60.1917 98.9641 58.4492 97.5438 58.4149 95.7555L58.2435 87.7225C58.2149 85.8249 60.1003 84.2838 62.3627 84.3643Z" fill="white"/>
<path opacity="0.72" d="M108.474 136.06L116.576 135.98C117.935 135.968 119.049 137.055 119.078 138.418L119.249 146.577C119.278 147.934 118.227 149.067 116.878 149.125L108.783 149.47C107.394 149.527 106.229 148.429 106.2 147.031L106.023 138.607C105.989 137.216 107.092 136.072 108.474 136.06Z" fill="white"/>
<path opacity="0.72" d="M62.5969 103.041L68.2245 103.053C69.51 103.053 70.5555 104.088 70.5841 105.381L70.7783 114.518C70.8069 115.818 69.7899 116.905 68.493 116.945L62.8426 117.129C60.6602 117.204 58.8433 115.766 58.8091 113.938L58.6491 106.411C58.6091 104.559 60.3973 103.041 62.5969 103.041Z" fill="white"/>
<path opacity="0.72" d="M62.8042 120.483L68.6774 120.287C69.9 120.247 70.917 121.219 70.9456 122.449L71.1055 129.971C71.1341 131.207 70.14 132.225 68.9117 132.225H63.0099C60.8845 132.225 59.1649 130.804 59.1249 129.028L59.0163 123.841C58.9763 122.047 60.6674 120.552 62.8042 120.483Z" fill="white"/>
<path opacity="0.72" d="M86.8667 121.926L87.0381 129.97C87.0667 131.206 86.0725 132.224 84.8442 132.224H76.1715C74.9774 132.224 74.0005 131.264 73.9776 130.062L73.8119 122.299C73.7891 121.092 74.7318 120.085 75.9315 120.045L84.5985 119.758C85.8212 119.723 86.8381 120.695 86.8667 121.926Z" fill="white"/>
<path opacity="0.72" d="M76.6174 136.37L84.7131 136.289C86.0728 136.278 87.1869 137.364 87.2155 138.733L87.4097 147.933C87.4383 149.29 86.3813 150.423 85.033 150.481L76.943 150.826C75.5547 150.883 74.3892 149.785 74.3607 148.388L74.1607 138.923C74.1321 137.525 75.2405 136.381 76.6174 136.37Z" fill="white"/>
<path opacity="0.72" d="M158.305 98.4122L154.917 98.4295C153.838 98.4352 152.946 97.567 152.924 96.4744L152.781 89.7409C152.758 88.5966 153.695 87.6651 154.832 87.7054L158.42 87.8376C160.476 87.9124 162.099 89.3097 162.133 91.029L162.219 95.0426C162.265 96.8827 160.494 98.4007 158.305 98.4122Z" fill="white"/>
<path opacity="0.72" d="M92.5459 136.214L100.51 136.134C101.944 136.122 103.121 137.272 103.155 138.71L103.338 147.249C103.367 148.606 102.31 149.739 100.962 149.796L92.8716 150.141C91.4833 150.199 90.3178 149.101 90.2892 147.703L90.1007 138.762C90.0607 137.37 91.1633 136.226 92.5459 136.214Z" fill="white"/>
<path opacity="0.72" d="M86.1419 87.4699L86.3304 96.4058C86.359 97.7341 85.3021 98.8266 83.9823 98.8324L75.6467 98.8784C74.3555 98.8841 73.2985 97.8491 73.27 96.5495L73.0757 87.2629C73.0472 85.8944 74.167 84.7903 75.521 84.8363L83.8623 85.1354C85.1135 85.1871 86.1133 86.2107 86.1419 87.4699Z" fill="white"/>
<path opacity="0.72" d="M86.519 105.411L86.7019 113.996C86.7304 115.295 85.7135 116.382 84.4166 116.422L76.0867 116.698C74.7726 116.744 73.6757 115.698 73.6471 114.375L73.4586 105.503C73.43 104.169 74.4984 103.07 75.8238 103.076L84.1595 103.093C85.445 103.088 86.4905 104.117 86.519 105.411Z" fill="white"/>
<path opacity="0.72" d="M159.231 80.5979L158.848 83.427C158.722 84.3355 157.968 85.0141 157.06 85.0371H156.928C155.905 85.0601 155.066 84.2435 155.043 83.22L154.98 80.3219C154.957 79.2006 155.917 78.3093 157.031 78.4358L157.608 78.4991C158.636 78.6141 159.373 79.5629 159.231 80.5979Z" fill="white"/>
<path opacity="0.72" d="M146.176 79.8675L145.793 82.6966C145.673 83.6052 144.913 84.2837 144.005 84.3067L143.873 84.3125C142.851 84.3355 142.011 83.5189 141.988 82.4954L141.925 79.5973C141.902 78.476 142.862 77.5847 143.976 77.7112L144.553 77.7745C145.582 77.8837 146.319 78.8325 146.176 79.8675Z" fill="white"/>
<path opacity="0.72" d="M130.123 80.092L129.74 82.9211C129.62 83.8297 128.861 84.5082 127.952 84.5312H127.821C126.798 84.5542 125.958 83.7377 125.935 82.7141L125.872 79.816C125.85 78.6947 126.809 77.8035 127.924 77.93L128.501 77.9932C129.523 78.1082 130.26 79.057 130.123 80.092Z" fill="white"/>
<path opacity="0.72" d="M114.475 79.385L114.092 82.2141C113.966 83.1226 113.212 83.8012 112.304 83.8242H112.172C111.15 83.8472 110.31 83.0306 110.287 82.0071L110.224 79.109C110.201 77.9877 111.161 77.0964 112.275 77.2229L112.852 77.2862C113.881 77.4012 114.618 78.35 114.475 79.385Z" fill="white"/>
<path opacity="0.72" d="M98.4014 77.3323L98.0187 80.1614C97.893 81.0699 97.1388 81.7484 96.2304 81.7714H96.099C95.0763 81.7944 94.2365 80.9779 94.2136 79.9543L94.1508 77.0563C94.1279 75.935 95.0878 75.0437 96.2018 75.1702L96.7789 75.2334C97.8073 75.3484 98.5443 76.2972 98.4014 77.3323Z" fill="white"/>
<path opacity="0.72" d="M81.377 77.6956L80.9942 80.5247C80.8685 81.4332 80.1144 82.1117 79.206 82.1347H79.0746C78.0519 82.1577 77.2121 81.3412 77.1892 80.3177L77.1264 77.4195C77.1035 76.2983 78.0633 75.407 79.1774 75.5335L79.7545 75.5967C80.7828 75.7117 81.5199 76.6605 81.377 77.6956Z" fill="white"/>
<path opacity="0.72" d="M67.0069 77.3899L66.6241 80.219C66.5041 81.1275 65.7443 81.806 64.8359 81.829H64.7045C63.6818 81.852 62.842 81.0355 62.8191 80.012L62.7563 77.1139C62.7334 75.9926 63.6932 75.1013 64.8073 75.2278L65.3844 75.2911C66.4127 75.4061 67.1497 76.3548 67.0069 77.3899Z" fill="white"/>
<path d="M42.0001 157.33C42.1657 157.33 42.3029 157.198 42.3029 157.025L42.6685 103.623C42.6685 103.456 42.5371 103.318 42.3657 103.318C42.2 103.318 42.0629 103.451 42.0629 103.623L41.6973 157.025C41.6973 157.192 41.8287 157.33 42.0001 157.33Z" fill="#BDD0FB"/>
<path d="M42.4512 91.6686C42.6169 91.6686 42.754 91.5363 42.754 91.3638L42.8797 72.7159C42.8797 72.5491 42.7483 72.4111 42.5769 72.4111C42.4113 72.4111 42.2741 72.5434 42.2741 72.7159L42.1484 91.3638C42.1484 91.5306 42.2856 91.6686 42.4512 91.6686Z" fill="#BDD0FB"/>
<path d="M156.014 76.0102C157.8 76.0102 159.248 74.5531 159.248 72.7556C159.248 70.9581 157.8 69.501 156.014 69.501C154.228 69.501 152.78 70.9581 152.78 72.7556C152.78 74.5531 154.228 76.0102 156.014 76.0102Z" fill="url(#paint3_linear)"/>
<path d="M129.528 75.7622C131.314 75.7622 132.761 74.305 132.761 72.5076C132.761 70.7101 131.314 69.2529 129.528 69.2529C127.742 69.2529 126.294 70.7101 126.294 72.5076C126.294 74.305 127.742 75.7622 129.528 75.7622Z" fill="url(#paint4_linear)"/>
<path d="M102.789 74.8823C104.575 74.8823 106.023 73.4251 106.023 71.6277C106.023 69.8302 104.575 68.373 102.789 68.373C101.003 68.373 99.5557 69.8302 99.5557 71.6277C99.5557 73.4251 101.003 74.8823 102.789 74.8823Z" fill="url(#paint5_linear)"/>
<path d="M76.304 73.6303C78.0899 73.6303 79.5377 72.1732 79.5377 70.3757C79.5377 68.5782 78.0899 67.1211 76.304 67.1211C74.5181 67.1211 73.0703 68.5782 73.0703 70.3757C73.0703 72.1732 74.5181 73.6303 76.304 73.6303Z" fill="url(#paint6_linear)"/>
<path d="M73.8414 47.8343C79.2804 49.0304 78.7662 63.4347 78.332 69.2826C78.2291 70.6569 77.0922 71.7207 75.721 71.7207C75.3382 71.7207 74.9783 71.554 74.7212 71.2722C74.4641 70.9847 74.3441 70.6052 74.3841 70.2257C74.8526 65.8037 75.8524 53.0785 71.8474 52.3943C71.8474 52.3943 68.9737 51.8825 68.4938 57.4832H65.3857C65.3857 57.4774 67.0026 46.3278 73.8414 47.8343Z" fill="url(#paint7_linear)"/>
<path d="M100.333 48.5707C105.772 49.7668 105.257 64.1768 104.823 70.0248C104.72 71.3991 103.583 72.4629 102.212 72.4629C101.829 72.4629 101.47 72.3019 101.212 72.0144C100.955 71.7268 100.835 71.3473 100.875 70.9678C101.344 66.5459 102.344 53.8092 98.3386 53.1249C98.3386 53.1249 95.4649 52.7224 94.985 58.2024H91.877C91.877 58.2081 93.4938 47.0699 100.333 48.5707Z" fill="url(#paint8_linear)"/>
<path d="M126.82 49.3179C132.259 50.5139 131.745 64.924 131.31 70.7719C131.208 72.1462 130.071 73.2158 128.7 73.2158C128.317 73.2158 127.957 73.0548 127.7 72.7672C127.443 72.4797 127.323 72.1002 127.363 71.7207C127.831 67.2988 128.831 54.5563 124.826 53.872C124.826 53.872 121.952 53.5443 121.472 59.053L118.364 58.9437C118.364 58.9495 119.981 47.8171 126.82 49.3179Z" fill="url(#paint9_linear)"/>
<path d="M153.306 50.1735C158.745 51.3695 158.231 65.791 157.797 71.639C157.694 73.0133 156.557 74.0828 155.186 74.0828C154.803 74.0828 154.443 73.9218 154.186 73.6343C153.929 73.3468 153.809 72.9673 153.849 72.5878C154.317 68.1659 155.317 55.4062 151.312 54.7276C151.312 54.7276 148.438 54.3079 147.959 59.7878H144.851C144.851 59.7936 146.467 48.6727 153.306 50.1735Z" fill="url(#paint10_linear)"/>
<path d="M139.939 114.922C139.179 114.922 138.465 114.635 137.91 114.106C137.333 113.554 137.008 112.812 136.99 112.012L136.859 105.883C136.842 105.078 137.145 104.313 137.705 103.738C138.265 103.163 139.013 102.847 139.813 102.847H139.819L147.634 102.858C149.228 102.858 150.548 104.169 150.582 105.768L150.708 111.627C150.742 113.249 149.462 114.612 147.851 114.663L140.041 114.922C140.007 114.922 139.973 114.922 139.939 114.922ZM139.813 103.519C139.196 103.519 138.613 103.767 138.179 104.209C137.745 104.658 137.51 105.245 137.528 105.871L137.659 112.001C137.67 112.622 137.927 113.197 138.373 113.623C138.819 114.048 139.407 114.272 140.019 114.255L147.828 113.996C149.074 113.956 150.068 112.898 150.04 111.644L149.914 105.785C149.885 104.543 148.863 103.531 147.629 103.531L139.813 103.519C139.819 103.519 139.813 103.519 139.813 103.519Z" fill="url(#paint11_linear)"/>
<path d="M107.372 115.996C106.806 115.996 106.269 115.784 105.852 115.387C105.418 114.973 105.172 114.415 105.161 113.817L104.978 105.065C104.967 104.462 105.189 103.892 105.612 103.461C106.029 103.03 106.595 102.794 107.189 102.794C107.189 102.794 107.189 102.794 107.195 102.794L116.496 102.811C117.69 102.811 118.678 103.789 118.701 104.991L118.878 113.42C118.901 114.634 117.941 115.651 116.736 115.692L107.44 115.996C107.423 115.996 107.4 115.996 107.372 115.996ZM107.189 103.461C106.772 103.461 106.378 103.628 106.086 103.927C105.795 104.226 105.635 104.628 105.646 105.048L105.829 113.8C105.841 114.22 106.012 114.611 106.309 114.898C106.612 115.186 107.006 115.335 107.423 115.324L116.719 115.019C117.559 114.99 118.233 114.277 118.216 113.432L118.038 105.002C118.021 104.162 117.33 103.478 116.496 103.478L107.189 103.461C107.195 103.461 107.189 103.461 107.189 103.461Z" fill="url(#paint12_linear)"/>
<path d="M123.295 115.474C122.729 115.474 122.192 115.261 121.775 114.864C121.341 114.45 121.095 113.892 121.084 113.294L120.913 105.095C120.901 104.491 121.124 103.922 121.547 103.49C121.964 103.059 122.529 102.823 123.124 102.823C123.124 102.823 123.124 102.823 123.129 102.823L132.43 102.84C133.624 102.84 134.613 103.818 134.636 105.02L134.801 112.898C134.824 114.111 133.864 115.129 132.665 115.169L123.369 115.474C123.341 115.474 123.318 115.474 123.295 115.474ZM123.124 103.49C122.706 103.49 122.312 103.657 122.021 103.956C121.73 104.255 121.57 104.658 121.581 105.077L121.752 113.277C121.764 113.697 121.935 114.088 122.232 114.375C122.535 114.663 122.929 114.812 123.346 114.801L132.642 114.496C133.482 114.467 134.156 113.754 134.139 112.909L133.973 105.031C133.956 104.192 133.265 103.508 132.43 103.508L123.124 103.49Z" fill="url(#paint13_linear)"/>
<path d="M34.9859 117.79C34.9859 117.79 27.6901 121.861 27.0845 128.744C26.4789 135.627 27.0331 164.212 41.6647 171.244C56.2963 178.277 75.6642 176.655 83.08 175.89C90.4958 175.12 94.6036 170.048 95.5235 166.558C96.4433 163.067 97.923 150.06 90.1244 145.863C82.3259 141.665 74.1331 135.242 65.946 128.98C57.7646 122.718 43.7386 112.5 34.9859 117.79Z" fill="url(#paint14_linear)"/>
<path d="M87.8272 148.231C87.8272 148.231 85.8562 148.335 85.6162 152.412C85.6162 152.412 90.1811 156.535 96.3514 157.512C96.8142 157.587 95.7058 154.332 95.5344 153.89C94.7403 151.797 92.2379 150.445 87.8272 148.231Z" fill="url(#paint15_linear)"/>
<path d="M65.6486 143.437H69.8022C69.8022 143.437 82.5599 129.257 90.9241 127.825C90.9241 127.825 96.7459 135.306 90.6155 149.285C90.1242 150.412 88.7416 150.907 87.7132 150.245C87.4047 150.05 87.1819 149.779 87.0505 149.452L87.5418 137.514C87.5418 137.514 76.6638 147.094 74.767 148.94C72.8759 150.797 63.2662 149.67 65.6486 143.437Z" fill="url(#paint16_linear)"/>
<path d="M105.824 173.206C104.081 171.671 101.304 169.946 97.2994 169.451L95.9453 170.285C95.9453 170.285 96.808 171.567 98.3849 172.924C99.836 173.77 102.076 174.92 103.932 175.167C105.744 175.414 106.006 174.316 105.824 173.206Z" fill="url(#paint17_linear)"/>
<path d="M95.5352 153.897C94.4611 154.247 93.9927 155.777 91.2674 154.765C88.6336 153.787 86.674 152.522 85.6685 151.798C85.6456 151.993 85.6285 152.2 85.6113 152.419C85.6113 152.419 90.4276 157.031 96.5979 158.008C97.0607 158.083 97.4263 157.617 97.2606 157.174C96.9635 156.381 96.4265 155.185 95.5352 153.897Z" fill="url(#paint18_linear)"/>
<path d="M107.14 174.517C106.797 174.126 106.357 173.671 105.826 173.206C106.008 174.31 105.746 175.408 103.94 175.166C102.083 174.919 99.8437 173.769 98.3926 172.924C100.209 174.482 102.975 176.138 106.465 176.046C107.242 176.023 107.654 175.103 107.14 174.517Z" fill="url(#paint19_linear)"/>
<path d="M65.7979 146.468L85.263 146.681C85.263 146.681 96.3752 155.938 98.392 170.049C98.392 170.049 98.7291 171.09 96.718 171.263C96.718 171.263 89.9992 166.847 85.6172 159.038C80.2467 149.464 69.603 153.771 69.603 153.771C66.1064 151.235 61.1645 150.717 57.4395 149.872L65.7979 146.468Z" fill="url(#paint20_linear)"/>
<path d="M66.2612 130.689C66.2612 130.689 68.358 141.258 78.6247 145.439L82.2754 145.007L83.1381 146.388L74.574 146.664C74.574 146.664 67.2496 143.742 63.3703 135.79C63.2389 135.525 61.1021 131.086 66.2612 130.689Z" fill="url(#paint21_linear)"/>
<path d="M67.3795 146.295C67.3795 146.295 64.9971 139.774 64.4829 133.443C64.4829 133.443 66.2254 131.936 67.3166 131.287C67.6709 131.074 67.8023 130.631 67.6252 130.257C66.8253 128.59 61.9805 122.029 61.6148 121.937C59.6438 121.442 51.5538 117.572 45.8577 125.416C43.4125 128.78 46.3433 139.141 57.4327 149.871L59.718 150.314L67.3795 146.295Z" fill="url(#paint22_linear)"/>
<path d="M58.199 134.869C58.199 134.869 64.8207 142.758 73.282 143.908C73.282 143.908 75.4702 141.902 77.0927 142.62C78.721 143.339 80.9492 146.502 80.9492 146.502H70.0883C70.0883 146.502 59.8159 146.14 54.6797 139.866C55.091 137.67 56.3308 136.358 58.199 134.869Z" fill="url(#paint23_linear)"/>
<path d="M54.3369 116.405L52.8858 121.27C52.8172 121.494 52.9029 121.736 53.0914 121.868C53.7885 122.351 55.611 123.306 58.1134 122.374C58.399 122.27 58.5933 122 58.6219 121.695L58.9646 117.458L54.3369 116.405Z" fill="url(#paint24_linear)"/>
<path d="M62.8207 112.467C62.8207 112.467 62.1065 117.504 60.1869 119.057C58.2615 120.609 54.5136 119.442 53.251 115.641L55.7705 109.144L62.8207 112.467Z" fill="url(#paint25_linear)"/>
<path d="M55.4848 113.346C55.6334 113.392 55.7819 113.3 55.8048 113.145C55.8733 112.679 56.0447 111.759 56.3989 111.132C56.3989 111.132 56.2161 110.471 58.0615 111.471C59.9069 112.472 62.6721 113.938 64.3061 113.064C65.8944 112.213 67.5055 107.924 63.3063 108.717C63.1463 108.746 62.9977 108.619 63.0092 108.458C63.0606 107.751 62.992 106.135 61.358 105.612C59.8326 105.123 60.6496 105.917 60.3068 106.331C60.204 106.451 60.4325 105.911 58.2672 106.227C57.5244 106.336 56.5703 104.347 54.7421 105.158C53.2338 105.825 52.9996 106.756 53.0281 107.343C53.0338 107.533 52.8453 107.659 52.6739 107.579C52.2111 107.366 51.4684 107.256 50.76 108.148C49.7773 109.384 51.1827 110.459 51.5998 110.741C51.6684 110.787 51.7141 110.862 51.7141 110.948C51.7198 111.592 51.8169 114.404 53.2167 115.985C53.3366 116.123 53.5595 116.083 53.6337 115.911L54.7135 113.329C54.7649 113.208 54.8964 113.145 55.022 113.185L55.4848 113.346Z" fill="url(#paint26_linear)"/>
<path d="M55.5072 113.869C55.5072 113.869 54.8501 111.172 53.8503 112.046C52.8505 112.92 54.1131 114.847 55.2558 115.215L55.5072 113.869Z" fill="url(#paint27_linear)"/>
<path d="M80.4062 147.11L85.2854 130.734C85.4853 130.067 86.0738 129.589 86.7651 129.543L93.3525 129.089C94.0209 129.043 94.518 129.699 94.2951 130.337L88.839 145.978C88.6619 146.484 88.2162 146.84 87.6849 146.892L81.2004 147.616L80.4062 147.11Z" fill="url(#paint28_linear)"/>
<path d="M89.4047 136.284C89.039 137.026 88.4106 137.457 87.9992 137.25C87.5879 137.043 87.5479 136.278 87.9135 135.536C88.2792 134.795 88.9076 134.363 89.319 134.57C89.7303 134.777 89.7703 135.548 89.4047 136.284Z" fill="#91B3FA"/>
<path d="M81.2076 147.617C81.1961 147.617 81.1847 147.617 81.1733 147.617L67.3529 146.915C67.0101 146.898 66.7473 146.605 66.7645 146.26C66.7816 145.915 67.073 145.644 67.4158 145.667L81.2361 146.369C81.5789 146.386 81.8417 146.679 81.8246 147.024C81.8074 147.358 81.5332 147.617 81.2076 147.617Z" fill="url(#paint29_linear)"/>
<path d="M64.4897 133.552C64.4269 133.552 64.3812 133.501 64.3812 133.443C64.3926 130.539 63.2785 126.681 63.2671 126.641C63.25 126.583 63.2843 126.52 63.3414 126.503C63.3985 126.485 63.4614 126.52 63.4785 126.577C63.4899 126.618 64.6154 130.505 64.604 133.443C64.5983 133.501 64.5469 133.552 64.4897 133.552Z" fill="url(#paint30_linear)"/>
<path d="M58.1979 134.978C58.1637 134.978 58.1351 134.966 58.1122 134.937C58.0837 134.897 55.0614 131.033 54.0216 128.382C53.9987 128.325 54.0273 128.261 54.0844 128.238C54.1415 128.215 54.2044 128.244 54.2272 128.302C55.2556 130.924 58.2608 134.765 58.2894 134.805C58.3293 134.851 58.3179 134.92 58.2722 134.96C58.2494 134.972 58.2265 134.978 58.1979 134.978Z" fill="url(#paint31_linear)"/>
<path d="M53.9489 140.895L53.8689 140.86C49.4925 138.974 46.7959 133.719 46.7673 133.667C46.7388 133.615 46.7616 133.546 46.813 133.517C46.8645 133.489 46.933 133.512 46.9616 133.563C46.9901 133.615 49.6182 138.739 53.8746 140.619L54.3259 139.981C54.3602 139.929 54.4288 139.917 54.4802 139.952C54.5316 139.986 54.5431 140.055 54.5088 140.107L53.9489 140.895Z" fill="url(#paint32_linear)"/>
<path d="M86.7246 69.1777C86.7246 69.1777 96.5 95.1169 99.5851 100.516C103.167 106.778 113.64 102.788 113.114 97.5435C112.594 92.2993 100.362 70.6325 100.362 70.6325L86.7246 69.1777Z" fill="url(#paint33_linear)"/>
<path d="M107.241 100.659C106.79 100.659 106.338 100.613 105.887 100.51C103.91 100.079 102.293 98.7619 101.465 96.9045L93.6892 79.5102C93.6321 79.3836 93.6892 79.2341 93.8149 79.1766C93.9406 79.1191 94.0891 79.1766 94.1463 79.3031L101.922 96.6975C102.688 98.4053 104.173 99.6186 105.996 100.015C107.789 100.406 109.601 99.9407 110.972 98.7331C111.046 98.6699 111.12 98.6009 111.195 98.5319C111.297 98.4398 111.457 98.4456 111.549 98.5491C111.64 98.6526 111.634 98.8136 111.532 98.9056C111.457 98.9746 111.377 99.0436 111.303 99.1126C110.155 100.125 108.726 100.659 107.241 100.659Z" fill="#91B3FA"/>
<path d="M92.7637 77.0955C92.6666 77.0955 92.5751 77.038 92.5351 76.946L91.6667 75.0082C91.6096 74.8817 91.6667 74.7322 91.7924 74.6747C91.9181 74.6172 92.0667 74.6747 92.1238 74.8012L92.9922 76.739C93.0493 76.8655 92.9922 77.015 92.8665 77.0725C92.838 77.084 92.798 77.0955 92.7637 77.0955Z" fill="#91B3FA"/>
<path d="M99.934 50.2821L160.677 29.0811L160.037 86.4451L98.2715 72.5756L99.934 50.2821Z" fill="url(#paint34_linear)"/>
<path d="M160.735 87.4119C164.032 87.4119 166.705 74.2126 166.705 57.9305C166.705 41.6485 164.032 28.4492 160.735 28.4492C157.438 28.4492 154.765 41.6485 154.765 57.9305C154.765 74.2126 157.438 87.4119 160.735 87.4119Z" fill="url(#paint35_linear)"/>
<path d="M161.186 85.3933C160.649 84.8413 159.472 82.7137 158.466 77.205C157.495 71.8803 156.958 64.98 156.958 57.7635C156.958 50.5528 157.495 43.6468 158.466 38.3221C159.472 32.8134 160.649 30.6858 161.186 30.1338C161.723 30.6858 162.9 32.8134 163.905 38.3221C164.877 43.6468 165.414 50.547 165.414 57.7635C165.414 64.9743 164.877 71.8803 163.905 77.205C162.9 82.7137 161.729 84.8413 161.186 85.3933Z" fill="url(#paint36_linear)"/>
<path d="M168.836 57.5456C168.836 62.554 166.157 66.6137 160.849 66.6137C155.541 66.6137 151.239 62.554 151.239 57.5456C151.239 52.5372 155.541 48.4775 160.849 48.4775C166.157 48.4775 168.836 52.5372 168.836 57.5456Z" fill="url(#paint37_linear)"/>
<path d="M90.1357 49.0463C92.9923 48.7128 97.0887 48.5921 101.522 49.6156C100.065 57.2921 100.282 65.2907 101.974 73.571H89.4787C87.4848 73.571 85.7879 72.1162 85.4794 70.1324C84.8567 66.1647 84.0968 59.4887 84.9081 54.1295C85.308 51.4442 87.4505 49.3626 90.1357 49.0463Z" fill="url(#paint38_linear)"/>
<path d="M97.6369 54.9234H87.9015C87.5701 54.9234 87.2788 54.7509 87.1188 54.4577C86.9588 54.1644 86.976 53.8251 87.1531 53.5434C87.2273 53.4284 87.3816 53.3939 87.5016 53.4686C87.6158 53.5434 87.6501 53.6986 87.5758 53.8194C87.4959 53.9401 87.4901 54.0897 87.5587 54.2162C87.6273 54.3427 87.753 54.4174 87.9015 54.4174H97.6369C97.8483 54.4174 98.0254 54.2449 98.0254 54.0264V53.3306C98.0254 53.1179 97.854 52.9396 97.6369 52.9396H87.8272C87.6901 52.9396 87.5758 52.8246 87.5758 52.6866C87.5758 52.5486 87.6901 52.4336 87.8272 52.4336H97.6369C98.1282 52.4336 98.5224 52.8361 98.5224 53.3249V54.0207C98.5224 54.5267 98.1225 54.9234 97.6369 54.9234Z" fill="#91B3FA"/>
<path d="M96.7687 59.2643H87.0333C86.702 59.2643 86.4106 59.0918 86.2506 58.7985C86.0907 58.5052 86.1078 58.166 86.2849 57.8842C86.3592 57.7692 86.5134 57.7347 86.6334 57.8095C86.7477 57.8842 86.782 58.0395 86.7077 58.1602C86.6277 58.281 86.622 58.4305 86.6905 58.557C86.7591 58.6835 86.8848 58.7582 87.0333 58.7582H96.7687C96.9801 58.7582 97.1572 58.5857 97.1572 58.3672V57.6714C97.1572 57.4587 96.9858 57.2804 96.7687 57.2804H86.9591C86.822 57.2804 86.7077 57.1654 86.7077 57.0274C86.7077 56.8894 86.822 56.7744 86.9591 56.7744H96.7687C97.26 56.7744 97.6543 57.1769 97.6543 57.6657V58.3615C97.6543 58.8617 97.2543 59.2643 96.7687 59.2643Z" fill="#91B3FA"/>
<path opacity="0.76" d="M108.761 48.7301C108.653 48.7301 108.555 48.6611 108.521 48.5518C108.481 48.4195 108.55 48.2758 108.681 48.2355L154.69 33.4978C154.821 33.4575 154.964 33.5265 155.004 33.6588C155.044 33.791 154.976 33.9348 154.844 33.975L108.835 48.7128C108.812 48.7243 108.784 48.7301 108.761 48.7301Z" fill="white"/>
<path opacity="0.76" d="M102.539 51.2883C102.442 51.2883 102.345 51.2308 102.305 51.1331C102.254 51.0066 102.317 50.8571 102.442 50.8053L104.807 49.8335C104.933 49.7818 105.082 49.845 105.133 49.9715C105.185 50.098 105.122 50.2475 104.996 50.2993L102.631 51.2711C102.602 51.2826 102.568 51.2883 102.539 51.2883Z" fill="white"/>
<path d="M97.6369 64.3473H87.9015C87.5701 64.3473 87.2788 64.1747 87.1188 63.8815C86.9588 63.5882 86.976 63.249 87.1531 62.9672C87.2273 62.8522 87.3816 62.8177 87.5016 62.8925C87.6158 62.9672 87.6501 63.1225 87.5758 63.2432C87.4959 63.364 87.4901 63.5135 87.5587 63.64C87.6273 63.7665 87.753 63.8412 87.9015 63.8412H97.6369C97.8483 63.8412 98.0254 63.6687 98.0254 63.4502V62.7544C98.0254 62.5417 97.854 62.3634 97.6369 62.3634H87.8272C87.6901 62.3634 87.5758 62.2484 87.5758 62.1104C87.5758 61.9724 87.6901 61.8574 87.8272 61.8574H97.6369C98.1282 61.8574 98.5224 62.2599 98.5224 62.7487V63.4445C98.5224 63.9447 98.1225 64.3473 97.6369 64.3473Z" fill="#91B3FA"/>
<path d="M98.5461 69.9879H88.8107C88.4793 69.9879 88.1879 69.8154 88.028 69.5221C87.868 69.2289 87.8851 68.8896 88.0623 68.6078C88.1365 68.4928 88.2908 68.4583 88.4108 68.5331C88.525 68.6078 88.5593 68.7631 88.485 68.8839C88.405 69.0046 88.3993 69.1541 88.4679 69.2806C88.5364 69.4071 88.6621 69.4819 88.8107 69.4819H98.5461C98.7574 69.4819 98.9345 69.3094 98.9345 69.0909V68.3951C98.9345 68.1823 98.7632 68.0041 98.5461 68.0041H88.7364C88.5993 68.0041 88.485 67.8891 88.485 67.7511C88.485 67.6131 88.5993 67.498 88.7364 67.498H98.5461C99.0374 67.498 99.4316 67.9006 99.4316 68.3893V69.0851C99.4373 69.5854 99.0374 69.9879 98.5461 69.9879Z" fill="#91B3FA"/>
<path d="M167.413 57.2861C167.282 57.2861 167.173 57.1826 167.162 57.0503C166.99 54.595 166.145 52.7664 164.648 51.6106C162.066 49.6153 158.381 50.2996 158.341 50.3053C158.203 50.3341 158.072 50.2421 158.049 50.1041C158.021 49.9661 158.112 49.8338 158.249 49.8108C158.409 49.7821 162.197 49.0748 164.956 51.2081C166.568 52.4559 167.482 54.4052 167.665 57.0101C167.676 57.1481 167.573 57.2688 167.43 57.2803C167.425 57.2861 167.419 57.2861 167.413 57.2861Z" fill="#91B3FA"/>
<defs>
<linearGradient id="paint0_linear" x1="194.621" y1="206.1" x2="81.0335" y2="85.9612" gradientUnits="userSpaceOnUse">
<stop stop-color="#DAE3FE"/>
<stop offset="1" stop-color="#E9EFFD"/>
</linearGradient>
<linearGradient id="paint1_linear" x1="159.972" y1="48.8101" x2="57.3742" y2="103.461" gradientUnits="userSpaceOnUse">
<stop stop-color="#4F52FF"/>
<stop offset="1" stop-color="#4042E2"/>
</linearGradient>
<linearGradient id="paint2_linear" x1="58.7016" y1="129.986" x2="203.289" y2="70.3544" gradientUnits="userSpaceOnUse">
<stop stop-color="#4F52FF"/>
<stop offset="1" stop-color="#4042E2"/>
</linearGradient>
<linearGradient id="paint3_linear" x1="151.647" y1="64.2273" x2="159.521" y2="79.4055" gradientUnits="userSpaceOnUse">
<stop stop-color="#4F52FF"/>
<stop offset="1" stop-color="#4042E2"/>
</linearGradient>
<linearGradient id="paint4_linear" x1="125.159" y1="63.9761" x2="133.033" y2="79.1544" gradientUnits="userSpaceOnUse">
<stop stop-color="#4F52FF"/>
<stop offset="1" stop-color="#4042E2"/>
</linearGradient>
<linearGradient id="paint5_linear" x1="98.4217" y1="63.0999" x2="106.296" y2="78.2781" gradientUnits="userSpaceOnUse">
<stop stop-color="#4F52FF"/>
<stop offset="1" stop-color="#4042E2"/>
</linearGradient>
<linearGradient id="paint6_linear" x1="71.9349" y1="61.8499" x2="79.8093" y2="77.0281" gradientUnits="userSpaceOnUse">
<stop stop-color="#4F52FF"/>
<stop offset="1" stop-color="#4042E2"/>
</linearGradient>
<linearGradient id="paint7_linear" x1="58.1114" y1="28.7056" x2="86.697" y2="83.8052" gradientUnits="userSpaceOnUse">
<stop stop-color="#FF928E"/>
<stop offset="1" stop-color="#FE7062"/>
</linearGradient>
<linearGradient id="paint8_linear" x1="84.5967" y1="29.4387" x2="113.191" y2="84.555" gradientUnits="userSpaceOnUse">
<stop stop-color="#FF928E"/>
<stop offset="1" stop-color="#FE7062"/>
</linearGradient>
<linearGradient id="paint9_linear" x1="111.084" y1="30.1773" x2="139.684" y2="85.3046" gradientUnits="userSpaceOnUse">
<stop stop-color="#FF928E"/>
<stop offset="1" stop-color="#FE7062"/>
</linearGradient>
<linearGradient id="paint10_linear" x1="137.57" y1="31.0247" x2="166.183" y2="86.1772" gradientUnits="userSpaceOnUse">
<stop stop-color="#FF928E"/>
<stop offset="1" stop-color="#FE7062"/>
</linearGradient>
<linearGradient id="paint11_linear" x1="151.129" y1="83.335" x2="137.528" y2="129.796" gradientUnits="userSpaceOnUse">
<stop stop-color="#FF928E"/>
<stop offset="1" stop-color="#FE7062"/>
</linearGradient>
<linearGradient id="paint12_linear" x1="121.89" y1="74.7745" x2="108.288" y2="121.236" gradientUnits="userSpaceOnUse">
<stop stop-color="#FF928E"/>
<stop offset="1" stop-color="#FE7062"/>
</linearGradient>
<linearGradient id="paint13_linear" x1="136.507" y1="79.0542" x2="122.906" y2="125.515" gradientUnits="userSpaceOnUse">
<stop stop-color="#FF928E"/>
<stop offset="1" stop-color="#FE7062"/>
</linearGradient>
<linearGradient id="paint14_linear" x1="69.127" y1="132.264" x2="45.1599" y2="176.767" gradientUnits="userSpaceOnUse">
<stop stop-color="#09005D"/>
<stop offset="1" stop-color="#1A0F91"/>
</linearGradient>
<linearGradient id="paint15_linear" x1="89.8165" y1="152.109" x2="97.0042" y2="159.567" gradientUnits="userSpaceOnUse">
<stop stop-color="#09005D"/>
<stop offset="1" stop-color="#1A0F91"/>
</linearGradient>
<linearGradient id="paint16_linear" x1="78.797" y1="144.665" x2="86.3209" y2="116.507" gradientUnits="userSpaceOnUse">
<stop stop-color="#4F52FF"/>
<stop offset="1" stop-color="#4042E2"/>
</linearGradient>
<linearGradient id="paint17_linear" x1="99.2872" y1="170.948" x2="112.853" y2="180.841" gradientUnits="userSpaceOnUse">
<stop stop-color="#09005D"/>
<stop offset="1" stop-color="#1A0F91"/>
</linearGradient>
<linearGradient id="paint18_linear" x1="105.742" y1="165.642" x2="77.1813" y2="142.462" gradientUnits="userSpaceOnUse">
<stop stop-color="#FEBBBA"/>
<stop offset="1" stop-color="#FF928E"/>
</linearGradient>
<linearGradient id="paint19_linear" x1="113.45" y1="182.391" x2="84.8897" y2="159.212" gradientUnits="userSpaceOnUse">
<stop stop-color="#FEBBBA"/>
<stop offset="1" stop-color="#FF928E"/>
</linearGradient>
<linearGradient id="paint20_linear" x1="99.4826" y1="152.027" x2="71.1887" y2="162.63" gradientUnits="userSpaceOnUse">
<stop stop-color="#4F52FF"/>
<stop offset="1" stop-color="#4042E2"/>
</linearGradient>
<linearGradient id="paint21_linear" x1="77.4705" y1="134.079" x2="68.2327" y2="144.994" gradientUnits="userSpaceOnUse">
<stop stop-color="#FEBBBA"/>
<stop offset="1" stop-color="#FF928E"/>
</linearGradient>
<linearGradient id="paint22_linear" x1="75.5522" y1="100.351" x2="50.0139" y2="147.586" gradientUnits="userSpaceOnUse">
<stop stop-color="#FF928E"/>
<stop offset="1" stop-color="#FE7062"/>
</linearGradient>
<linearGradient id="paint23_linear" x1="68.1476" y1="142.205" x2="85.6705" y2="103.108" gradientUnits="userSpaceOnUse">
<stop stop-color="#FEBBBA"/>
<stop offset="1" stop-color="#FF928E"/>
</linearGradient>
<linearGradient id="paint24_linear" x1="51.7877" y1="134.726" x2="56.5111" y2="119.18" gradientUnits="userSpaceOnUse">
<stop stop-color="#FEBBBA"/>
<stop offset="1" stop-color="#FF928E"/>
</linearGradient>
<linearGradient id="paint25_linear" x1="60.1038" y1="120.887" x2="55.1837" y2="104.853" gradientUnits="userSpaceOnUse">
<stop stop-color="#FEBBBA"/>
<stop offset="1" stop-color="#FF928E"/>
</linearGradient>
<linearGradient id="paint26_linear" x1="56.4892" y1="99.7172" x2="59.2841" y2="115.556" gradientUnits="userSpaceOnUse">
<stop stop-color="#09005D"/>
<stop offset="1" stop-color="#1A0F91"/>
</linearGradient>
<linearGradient id="paint27_linear" x1="57.0251" y1="121.831" x2="52.1051" y2="105.796" gradientUnits="userSpaceOnUse">
<stop stop-color="#FEBBBA"/>
<stop offset="1" stop-color="#FF928E"/>
</linearGradient>
<linearGradient id="paint28_linear" x1="80.4062" y1="138.353" x2="94.3516" y2="138.353" gradientUnits="userSpaceOnUse">
<stop stop-color="#09005D"/>
<stop offset="1" stop-color="#1A0F91"/>
</linearGradient>
<linearGradient id="paint29_linear" x1="82.1002" y1="144.489" x2="70.9394" y2="147.528" gradientUnits="userSpaceOnUse">
<stop stop-color="#09005D"/>
<stop offset="1" stop-color="#1A0F91"/>
</linearGradient>
<linearGradient id="paint30_linear" x1="56.2364" y1="136.453" x2="21.7209" y2="164.941" gradientUnits="userSpaceOnUse">
<stop stop-color="#E1473D"/>
<stop offset="1" stop-color="#E9605A"/>
</linearGradient>
<linearGradient id="paint31_linear" x1="53.8367" y1="133.547" x2="19.3212" y2="162.035" gradientUnits="userSpaceOnUse">
<stop stop-color="#E1473D"/>
<stop offset="1" stop-color="#E9605A"/>
</linearGradient>
<linearGradient id="paint32_linear" x1="54.2111" y1="133.999" x2="19.6957" y2="162.487" gradientUnits="userSpaceOnUse">
<stop stop-color="#E1473D"/>
<stop offset="1" stop-color="#E9605A"/>
</linearGradient>
<linearGradient id="paint33_linear" x1="84.7093" y1="104.783" x2="106.242" y2="76.083" gradientUnits="userSpaceOnUse">
<stop stop-color="#09005D"/>
<stop offset="1" stop-color="#1A0F91"/>
</linearGradient>
<linearGradient id="paint34_linear" x1="176.518" y1="49.0639" x2="105.591" y2="78.1046" gradientUnits="userSpaceOnUse">
<stop stop-color="#FF928E"/>
<stop offset="1" stop-color="#FE7062"/>
</linearGradient>
<linearGradient id="paint35_linear" x1="182.718" y1="43.9721" x2="248.307" y2="2.85437" gradientUnits="userSpaceOnUse">
<stop stop-color="#FEBBBA"/>
<stop offset="1" stop-color="#FF928E"/>
</linearGradient>
<linearGradient id="paint36_linear" x1="205.795" y1="19.7233" x2="154.563" y2="62.8545" gradientUnits="userSpaceOnUse">
<stop stop-color="#FF928E"/>
<stop offset="1" stop-color="#FE7062"/>
</linearGradient>
<linearGradient id="paint37_linear" x1="173.956" y1="56.7894" x2="131.588" y2="59.2047" gradientUnits="userSpaceOnUse">
<stop stop-color="#09005D"/>
<stop offset="1" stop-color="#1A0F91"/>
</linearGradient>
<linearGradient id="paint38_linear" x1="93.7028" y1="71.9385" x2="92.1199" y2="32.3594" gradientUnits="userSpaceOnUse">
<stop stop-color="#09005D"/>
<stop offset="1" stop-color="#1A0F91"/>
</linearGradient>
</defs>
</svg>
