<svg width="200" height="200" viewBox="0 0 200 200" fill="none" xmlns="http://www.w3.org/2000/svg">
<path d="M173.121 127.939C157.972 164.095 117.62 184.351 82.6254 178.886C76.9324 177.997 61.3223 175.348 47.4997 162.854C20.8964 138.806 15.2034 91.1768 36.666 57.612C52.2875 33.1829 80.2913 19.3323 106.895 20.0248C112.627 20.1748 134.591 21.0924 153.896 37.2285C156.731 39.6004 162.982 45.233 168.618 54.1666C181.854 75.1446 182.993 104.375 173.121 127.939Z" fill="url(#paint0_linear)"/>
<path d="M78.832 72.727C78.7295 72.7213 78.6271 72.6578 78.5701 72.5597C78.3595 72.1845 78.1374 71.8036 77.9097 71.44C77.8129 71.2842 77.8584 71.0822 78.0122 70.9841C78.1659 70.886 78.3652 70.9322 78.4619 71.088C78.6954 71.4631 78.9231 71.8498 79.1395 72.2365C79.2306 72.3981 79.1736 72.5943 79.0142 72.6866C78.9573 72.7155 78.8947 72.7328 78.832 72.727Z" fill="#91B3FA"/>
<path d="M52.9346 114.192C52.4393 114.163 51.9383 114.106 51.443 114.036C51.2665 114.013 51.1356 113.846 51.1641 113.667C51.1868 113.488 51.3519 113.361 51.5284 113.384C52.0066 113.448 52.5076 113.494 52.9858 113.534C53.3388 113.563 53.7031 113.58 54.0618 113.592C54.244 113.586 54.3806 113.754 54.3749 113.933C54.3692 114.117 54.2155 114.256 54.039 114.25C53.669 114.238 53.2989 114.215 52.9346 114.192ZM58.1949 114.065C58.0412 114.054 57.9159 113.933 57.8932 113.777C57.8704 113.598 58.0013 113.43 58.1778 113.407C58.9919 113.309 59.8117 113.171 60.6144 112.998L60.6827 112.98C60.8592 112.94 61.03 113.055 61.0699 113.234C61.1097 113.413 60.9959 113.586 60.8194 113.627L60.7511 113.644C59.9256 113.823 59.0887 113.961 58.2575 114.065C58.2404 114.071 58.2177 114.071 58.1949 114.065ZM64.7362 112.438C64.6166 112.426 64.5027 112.351 64.4572 112.224C64.3946 112.051 64.48 111.861 64.6451 111.797C65.4364 111.491 66.222 111.145 66.9735 110.77C67.1329 110.689 67.3322 110.758 67.4119 110.92C67.4916 111.082 67.4232 111.284 67.2638 111.364C66.4896 111.751 65.6869 112.103 64.8785 112.415C64.8329 112.438 64.7817 112.444 64.7362 112.438ZM70.6853 109.246C70.5886 109.241 70.5032 109.189 70.4405 109.108C70.3381 108.958 70.3722 108.75 70.5202 108.646C71.2091 108.156 71.8866 107.625 72.5299 107.071C72.6665 106.955 72.8714 106.973 72.991 107.111C73.1049 107.25 73.0935 107.457 72.9511 107.579C72.2908 108.144 71.6019 108.687 70.8903 109.189C70.8333 109.235 70.7593 109.252 70.6853 109.246ZM75.6895 104.676C75.6212 104.67 75.5528 104.647 75.5016 104.595C75.365 104.474 75.3536 104.266 75.4674 104.127C76.0197 103.481 76.5491 102.8 77.0387 102.102C77.1412 101.952 77.3461 101.917 77.4942 102.027C77.6422 102.131 77.6763 102.338 77.5682 102.488C77.0672 103.204 76.5263 103.897 75.957 104.56C75.8887 104.647 75.7863 104.681 75.6895 104.676ZM79.4412 99.0085C79.4013 99.0027 79.3558 98.9969 79.3159 98.9738C79.1565 98.893 79.0939 98.6911 79.1736 98.5295C79.555 97.7677 79.908 96.977 80.2154 96.1806C80.2837 96.0133 80.4716 95.9267 80.6367 95.996C80.8018 96.0652 80.8872 96.2557 80.8189 96.423C80.5001 97.2367 80.1414 98.0447 79.7543 98.8296C79.6973 98.9508 79.5721 99.02 79.4412 99.0085ZM81.7297 92.5852C81.7127 92.5852 81.6956 92.5795 81.6842 92.5795C81.5077 92.5391 81.3996 92.3602 81.4394 92.187C81.6273 91.3502 81.7753 90.4961 81.8835 89.6478C81.9062 89.4688 82.0713 89.3361 82.2478 89.365C82.4243 89.3881 82.5495 89.5554 82.5268 89.7343C82.4186 90.6 82.2649 91.4772 82.0713 92.3313C82.0372 92.4929 81.8892 92.5968 81.7297 92.5852ZM82.3958 85.7927C82.2307 85.7811 82.0998 85.6426 82.0941 85.4695C82.0713 84.6154 82.0144 83.7497 81.9119 82.9013C81.8892 82.7224 82.0201 82.5551 82.1966 82.532C82.3788 82.5089 82.5382 82.6416 82.5609 82.8205C82.6634 83.692 82.726 84.575 82.7488 85.4522C82.7545 85.6368 82.6122 85.7869 82.43 85.7927C82.4186 85.7927 82.4072 85.7927 82.3958 85.7927ZM81.4052 79.0347C81.2743 79.0232 81.1548 78.9308 81.1149 78.7923C80.8872 77.9671 80.6253 77.1418 80.3236 76.3454C80.261 76.1722 80.3463 75.9818 80.5114 75.9183C80.6765 75.8548 80.8701 75.9414 80.9327 76.1088C81.2401 76.9225 81.5077 77.7708 81.7411 78.6134C81.7867 78.7866 81.6899 78.9712 81.5134 79.0174C81.4793 79.0347 81.4394 79.0405 81.4052 79.0347Z" fill="#91B3FA"/>
<path d="M47.3555 113.17C47.3328 113.17 47.31 113.164 47.2872 113.159C46.8659 113.037 46.4446 112.899 46.029 112.755C45.8582 112.697 45.7671 112.506 45.8241 112.333C45.881 112.16 46.0689 112.068 46.2397 112.126C46.6439 112.264 47.0595 112.397 47.4694 112.518C47.6402 112.57 47.7427 112.755 47.6914 112.928C47.6516 113.089 47.5093 113.182 47.3555 113.17Z" fill="#91B3FA"/>
<path d="M30.6182 99.2737C30.51 99.268 30.4076 99.2045 30.3506 99.0948C30.1514 98.7024 29.9578 98.2985 29.77 97.8945C29.6959 97.7271 29.7643 97.5309 29.9294 97.4559C30.0945 97.3809 30.288 97.4501 30.362 97.6175C30.5442 98.0157 30.7321 98.4081 30.9256 98.789C31.011 98.9506 30.9484 99.1526 30.789 99.2333C30.7378 99.2622 30.6751 99.2737 30.6182 99.2737Z" fill="#91B3FA"/>
<path d="M28.615 94.1784C28.4841 94.1669 28.3645 94.0745 28.3247 93.9418C28.1425 93.2896 27.9774 92.626 27.8351 91.9623C27.7952 91.7776 27.7611 91.5987 27.7269 91.414C27.6927 91.2351 27.8066 91.062 27.9831 91.0274C28.1596 90.9927 28.3304 91.1082 28.3645 91.2871C28.3987 91.466 28.4328 91.6449 28.4727 91.8238C28.6093 92.4701 28.7687 93.1223 28.9509 93.7571C29.0021 93.9302 28.8997 94.1149 28.7289 94.1669C28.6947 94.1784 28.6549 94.1842 28.615 94.1784ZM27.5561 87.5474C27.391 87.5359 27.2601 87.4031 27.2544 87.23C27.2202 86.3701 27.2259 85.4929 27.2715 84.633C27.2828 84.4483 27.4366 84.3098 27.613 84.3213C27.7838 84.3329 27.9318 84.4887 27.9205 84.6676C27.8749 85.5102 27.8749 86.3585 27.9034 87.2011C27.9091 87.3858 27.7724 87.5359 27.5903 87.5474C27.5789 87.5474 27.5675 87.5474 27.5561 87.5474ZM28.0913 80.8529C28.0799 80.8529 28.0628 80.8471 28.0514 80.8471C27.8749 80.8125 27.7611 80.6336 27.7952 80.4547C27.966 79.6121 28.1823 78.7638 28.4271 77.9385C28.4784 77.7654 28.6606 77.6673 28.8313 77.7192C29.0021 77.7711 29.0989 77.9558 29.0477 78.129C28.8029 78.9311 28.5979 79.7622 28.4328 80.5817C28.4044 80.7548 28.2563 80.8645 28.0913 80.8529ZM30.209 74.4874C30.1692 74.4816 30.1293 74.4758 30.0952 74.4585C29.9301 74.3777 29.8618 74.1815 29.9415 74.0199C30.3058 73.2408 30.7157 72.4733 31.1484 71.7346C31.2395 71.5787 31.4387 71.5268 31.5924 71.6191C31.7462 71.7115 31.7974 71.9135 31.7063 72.0693C31.2793 72.7907 30.8865 73.5409 30.5279 74.3027C30.4652 74.4239 30.34 74.4932 30.209 74.4874ZM33.7615 68.8144C33.6989 68.8086 33.6305 68.7855 33.5793 68.7394C33.4427 68.6239 33.4199 68.4162 33.5338 68.2719C34.0746 67.6082 34.6496 66.9561 35.2473 66.3444C35.3726 66.2174 35.5775 66.2116 35.7085 66.3386C35.8394 66.4655 35.8394 66.6733 35.7142 66.806C35.1335 67.4062 34.5699 68.0411 34.0404 68.6874C33.9664 68.7798 33.8639 68.8202 33.7615 68.8144ZM38.5493 64.1686C38.4582 64.1629 38.3728 64.1167 38.3102 64.0359C38.202 63.8916 38.2305 63.6839 38.3785 63.5742C39.056 63.0606 39.7733 62.5701 40.4963 62.1199C40.65 62.0276 40.8493 62.0737 40.946 62.2296C41.0428 62.3854 40.9916 62.5874 40.8379 62.6855C40.1319 63.1241 39.4317 63.6031 38.7713 64.1052C38.703 64.1571 38.6233 64.1744 38.5493 64.1686ZM44.2935 60.8329C44.174 60.8214 44.0658 60.7521 44.0146 60.631C43.9462 60.4636 44.0203 60.2674 44.191 60.1981C44.9767 59.8634 45.7851 59.5633 46.5935 59.3036C46.7643 59.2459 46.9464 59.344 47.0034 59.5171C47.0603 59.6903 46.9635 59.8749 46.7927 59.9327C46.0014 60.1866 45.2101 60.4809 44.4472 60.8041C44.396 60.8272 44.3448 60.8387 44.2935 60.8329ZM50.6697 58.992C50.5217 58.9804 50.3964 58.8708 50.3736 58.715C50.3452 58.536 50.4647 58.3629 50.6469 58.3341C51.4895 58.1956 52.3434 58.0974 53.1917 58.0397C53.3682 58.0282 53.5276 58.1667 53.5389 58.3456C53.5503 58.5303 53.4137 58.6861 53.2372 58.6976C52.4117 58.7553 51.5749 58.8477 50.7551 58.9804C50.7152 58.992 50.6924 58.992 50.6697 58.992ZM59.8012 59.0728C59.7899 59.0728 59.7785 59.0728 59.7671 59.067C58.9473 58.9169 58.1161 58.8073 57.2906 58.738C57.1085 58.7207 56.9775 58.5649 56.9946 58.3802C57.0117 58.2013 57.1654 58.0628 57.3419 58.0801C57.3419 58.0801 57.3419 58.0801 57.3476 58.0801C58.1958 58.1552 59.0498 58.2648 59.8866 58.4206C60.0631 58.4553 60.1827 58.6226 60.1485 58.8015C60.1143 58.9689 59.9606 59.0843 59.8012 59.0728Z" fill="#91B3FA"/>
<path d="M65.0154 60.5727C64.9812 60.5727 64.9527 60.5611 64.9186 60.5496C64.5201 60.388 64.1159 60.2379 63.7116 60.0994C63.5408 60.0417 63.4498 59.8512 63.5067 59.6781C63.5636 59.5049 63.7515 59.4126 63.9223 59.4703C64.3379 59.6146 64.7535 59.7704 65.1577 59.932C65.3228 60.0013 65.4082 60.1918 65.3399 60.3591C65.2886 60.5034 65.152 60.5842 65.0154 60.5727Z" fill="#91B3FA"/>
<path d="M65.118 67.3887C65.0042 67.3079 64.8504 67.3079 64.7366 67.3945L61.503 69.7895C59.7666 69.0912 57.8993 68.6641 55.9808 68.5602L54.0281 65.0168C53.9597 64.8898 53.8231 64.8263 53.6808 64.8494L48.9499 65.7093C48.8133 65.7324 48.7051 65.8478 48.6823 65.9863L48.0675 69.9972C46.297 70.7706 44.6973 71.8209 43.3082 73.0905L39.454 71.9825C39.3174 71.9421 39.175 71.994 39.0953 72.1152L36.3513 76.1146C36.2716 76.23 36.2716 76.3859 36.357 76.5013L38.7196 79.7793C38.0308 81.5395 37.6095 83.4324 37.507 85.3773L34.0115 87.3568C33.8863 87.426 33.8236 87.5645 33.8464 87.7088L34.6947 92.5046C34.7174 92.6431 34.8313 92.7527 34.9679 92.7758L38.9246 93.3991C39.6874 95.1939 40.7235 96.8156 41.976 98.2238L40.8829 102.131C40.8431 102.269 40.8943 102.414 41.0139 102.494L44.9591 105.276C45.073 105.357 45.2267 105.357 45.3406 105.27L48.5742 102.875C50.3105 103.574 52.1778 104.001 54.0964 104.105L56.0491 107.648C56.1174 107.775 56.254 107.838 56.3963 107.815L61.1272 106.955C61.2639 106.932 61.372 106.817 61.3948 106.678L62.0096 102.668C63.7802 101.894 65.3799 100.844 66.769 99.5742L70.6231 100.682C70.7598 100.723 70.9021 100.671 70.9818 100.55L73.7258 96.5501C73.8055 96.4347 73.8055 96.2789 73.7201 96.1635L71.3575 92.8855C72.0464 91.1253 72.4677 89.2324 72.5701 87.2875L76.0656 85.308C76.1909 85.2388 76.2535 85.1002 76.2307 84.956L75.3825 80.1602C75.3597 80.0217 75.2458 79.912 75.1092 79.8889L71.1526 79.2656C70.3897 77.4708 69.3536 75.8491 68.1011 74.441L69.1942 70.5339C69.2341 70.3954 69.1828 70.2512 69.0633 70.1704L65.118 67.3887Z" fill="#91B3FA"/>
<path d="M54.6882 91.1486C54.2384 91.114 53.7887 91.0159 53.356 90.8485C52.1662 90.3926 51.2268 89.4981 50.7031 88.3208C50.1793 87.1493 50.1395 85.8392 50.5892 84.6331C51.039 83.4269 51.9214 82.4747 53.0828 81.9438C54.2384 81.4128 55.5307 81.3724 56.7206 81.8283C57.9104 82.2843 58.8498 83.1788 59.3735 84.3561C59.8973 85.5276 59.9371 86.8376 59.4874 88.0438C59.0376 89.2499 58.1552 90.2022 56.9938 90.7331C56.2594 91.0678 55.4681 91.2121 54.6882 91.1486ZM55.3087 82.5151C54.6882 82.4689 54.0619 82.5786 53.4756 82.844C51.5798 83.7155 50.7315 85.9893 51.5912 87.911C52.0068 88.846 52.7582 89.5558 53.6976 89.9194C54.6426 90.2829 55.6674 90.2483 56.5896 89.827C57.5119 89.4057 58.2121 88.644 58.5708 87.6917C58.9295 86.7337 58.8953 85.695 58.4797 84.76C58.0641 83.8251 57.3126 83.1153 56.3676 82.7517C56.0203 82.6247 55.6674 82.544 55.3087 82.5151Z" fill="#BDD0FB"/>
<path d="M54.0612 98.6507C51.932 98.4891 49.8769 97.7562 48.0779 96.4866C45.4306 94.6167 43.6544 91.812 43.0851 88.5917C42.9029 87.5587 42.8517 86.5199 42.9257 85.4984C43.0851 83.34 43.8081 81.2566 45.0606 79.433C46.9051 76.7494 49.6719 74.9488 52.8486 74.3717C52.934 74.3544 53.0137 74.3429 53.0991 74.3313C53.7823 74.2217 54.4711 74.1697 55.16 74.1813C55.2454 74.1813 55.3308 74.187 55.4162 74.187L55.382 75.1797C54.5964 75.1508 53.805 75.2085 53.0251 75.3528C50.2583 75.8549 47.8331 77.3611 46.1423 79.6176C46.0455 79.7446 45.9544 79.8716 45.8633 80.0043C44.7133 81.6779 44.0472 83.5939 43.8992 85.5792C43.8309 86.5199 43.8765 87.4721 44.0472 88.4243C44.571 91.3849 46.1992 93.9646 48.6358 95.6786C51.0724 97.3984 54.0214 98.0505 56.9419 97.5196C62.0314 96.5962 65.692 92.2737 66.0621 87.2701C66.1304 86.3467 66.0848 85.4003 65.9198 84.4481C65.5668 82.4397 64.6787 80.5699 63.3636 79.0405L64.098 78.3884C65.5326 80.0562 66.4947 82.0877 66.8762 84.2749C67.0583 85.3137 67.1096 86.341 67.0356 87.3451C66.6371 92.7873 62.652 97.4907 57.1127 98.4949C56.0936 98.6738 55.0689 98.7258 54.0612 98.6507Z" fill="#BDD0FB"/>
<path d="M114.268 59.9091C114.12 59.8975 113.983 59.811 113.915 59.6725C113.658 59.1646 113.38 58.6625 113.078 58.1778C112.947 57.97 113.01 57.6988 113.214 57.5718C113.419 57.4449 113.687 57.5026 113.812 57.7103C114.125 58.2124 114.421 58.7433 114.689 59.2743C114.797 59.4936 114.712 59.7533 114.501 59.8687C114.421 59.8975 114.342 59.9149 114.268 59.9091Z" fill="#91B3FA"/>
<path d="M98.8566 87.5236C98.646 87.5063 98.4695 87.3389 98.4581 87.1138C98.4411 86.8714 98.6232 86.6579 98.8623 86.6464C99.7049 86.5829 100.553 86.4617 101.384 86.2828C101.68 86.2193 101.971 86.1501 102.255 86.075C102.489 86.0115 102.722 86.1558 102.785 86.3867C102.847 86.6233 102.705 86.8599 102.477 86.9234C102.176 87.0042 101.874 87.0792 101.566 87.1427C100.695 87.3331 99.8074 87.4601 98.925 87.5236C98.8965 87.5236 98.8737 87.5236 98.8566 87.5236ZM107.561 84.6323C107.43 84.6207 107.305 84.5515 107.225 84.4303C107.094 84.2225 107.157 83.9513 107.362 83.8243C108.33 83.2068 109.246 82.4912 110.083 81.6948C110.26 81.5274 110.533 81.5389 110.698 81.7178C110.863 81.8968 110.852 82.1738 110.675 82.3411C109.798 83.1722 108.842 83.9224 107.829 84.5688C107.743 84.6207 107.647 84.638 107.561 84.6323ZM113.875 77.9089C113.812 77.9031 113.749 77.8858 113.692 77.8512C113.482 77.73 113.408 77.4645 113.527 77.251C114.091 76.2411 114.563 75.1676 114.934 74.0711C115.013 73.8403 115.258 73.7191 115.486 73.7941C115.713 73.8749 115.833 74.1231 115.759 74.3539C115.372 75.5024 114.877 76.622 114.285 77.6838C114.199 77.8397 114.034 77.9205 113.875 77.9089ZM116.306 68.9579C116.078 68.9406 115.901 68.7444 115.907 68.5078C115.93 67.3478 115.844 66.182 115.657 65.0336C115.617 64.7912 115.776 64.5661 116.015 64.5257C116.249 64.4853 116.476 64.6469 116.516 64.8835C116.715 66.0839 116.806 67.3132 116.778 68.5251C116.772 68.7675 116.573 68.9637 116.334 68.9579C116.323 68.9637 116.311 68.9579 116.306 68.9579Z" fill="#91B3FA"/>
<path d="M93.1521 87.0387C93.1294 87.0387 93.1066 87.0329 93.0838 87.0271C92.5088 86.8886 91.9338 86.7155 91.3816 86.525C91.1539 86.4442 91.0343 86.1961 91.1141 85.9652C91.1938 85.7344 91.4385 85.6132 91.6663 85.694C92.1957 85.8787 92.7479 86.0403 93.2945 86.173C93.5279 86.2307 93.6702 86.4673 93.6133 86.704C93.5564 86.9175 93.3571 87.056 93.1521 87.0387Z" fill="#91B3FA"/>
<path d="M80.8825 77.3148C80.7345 77.3032 80.6036 77.2167 80.5296 77.0782C80.2563 76.5472 80.0058 75.999 79.7838 75.4449C79.6927 75.2199 79.8009 74.9659 80.0229 74.8736C80.2449 74.7813 80.4954 74.8909 80.5865 75.116C80.7971 75.6469 81.0362 76.1721 81.2981 76.6742C81.4063 76.8877 81.3266 77.1532 81.1102 77.2686C81.0419 77.3032 80.9622 77.3205 80.8825 77.3148Z" fill="#91B3FA"/>
<path d="M78.839 70.1823C78.6283 70.165 78.4575 69.9976 78.4405 69.7841C78.3494 68.7453 78.3437 67.6892 78.4177 66.6504C78.4291 66.5003 78.4405 66.3445 78.4575 66.1945C78.4803 65.9521 78.7023 65.7905 78.9301 65.802C79.1692 65.8251 79.3399 66.0444 79.3172 66.281C79.3058 66.4253 79.2887 66.5696 79.2773 66.7139C79.2033 67.7065 79.209 68.7164 79.2944 69.7091C79.3172 69.9515 79.1407 70.165 78.9016 70.1881C78.8902 70.1823 78.8674 70.1823 78.839 70.1823ZM80.2451 61.1621C80.1996 61.1563 80.154 61.1505 80.1085 61.1275C79.8865 61.0351 79.784 60.7754 79.8751 60.5503C80.3362 59.4481 80.8941 58.3862 81.5431 57.3878C81.6741 57.1858 81.9416 57.1281 82.1466 57.2608C82.3458 57.3936 82.4028 57.6648 82.2718 57.8726C81.6513 58.8248 81.1162 59.8405 80.6778 60.8908C80.5981 61.0755 80.4216 61.1794 80.2451 61.1621ZM85.625 53.8443C85.5112 53.8386 85.403 53.7808 85.3233 53.6827C85.1696 53.4923 85.198 53.2153 85.3802 53.0652C86.2911 52.3034 87.276 51.6282 88.3121 51.0511C88.5227 50.9357 88.7846 51.0107 88.9042 51.2242C89.018 51.4378 88.944 51.7032 88.7334 51.8244C87.7485 52.3727 86.8035 53.0248 85.9381 53.7462C85.8413 53.8212 85.7332 53.8501 85.625 53.8443ZM93.7546 49.9142C93.5667 49.9027 93.4016 49.7642 93.3618 49.5622C93.3162 49.3256 93.4643 49.0889 93.6977 49.0428C94.859 48.8004 96.0432 48.6676 97.2159 48.6446C97.4607 48.6273 97.6543 48.835 97.66 49.0774C97.6657 49.3198 97.4721 49.5218 97.233 49.5275C96.1115 49.5506 94.9786 49.6776 93.8742 49.9084C93.8343 49.9142 93.7945 49.9142 93.7546 49.9142Z" fill="#91B3FA"/>
<path d="M104.412 50.8426C104.372 50.8369 104.326 50.8311 104.286 50.8138C103.763 50.606 103.222 50.4156 102.681 50.2598C102.453 50.1905 102.317 49.9481 102.385 49.7115C102.453 49.4807 102.692 49.3422 102.926 49.4114C103.489 49.5788 104.059 49.775 104.605 49.9943C104.827 50.0809 104.935 50.3406 104.85 50.5656C104.776 50.7445 104.594 50.8542 104.412 50.8426Z" fill="#91B3FA"/>
<path d="M104.498 55.2867C104.418 55.229 104.316 55.2348 104.236 55.2925L102.021 56.9315C100.832 56.4525 99.5564 56.1639 98.2413 56.0947L96.9035 53.6708C96.8579 53.5842 96.7612 53.538 96.6644 53.5554L93.4308 54.144C93.334 54.1613 93.26 54.2364 93.2486 54.3345L92.8273 57.0757C91.6204 57.6067 90.5216 58.3223 89.5709 59.1938L86.935 58.4377C86.844 58.4089 86.7415 58.4493 86.6902 58.5243L84.8116 61.2598C84.7546 61.3406 84.7603 61.4445 84.8173 61.5253L86.4341 63.7703C85.9615 64.9764 85.6769 66.2692 85.6086 67.6023L83.2175 68.9585C83.1321 69.0047 83.0866 69.1028 83.1037 69.2009L83.6843 72.4847C83.7014 72.5828 83.7754 72.6578 83.8722 72.6693L86.5764 73.0964C87.1001 74.3199 87.8061 75.4337 88.6657 76.3975L87.9199 79.0695C87.8915 79.1618 87.9313 79.2657 88.0053 79.3177L90.7038 81.2221C90.7835 81.2799 90.886 81.2741 90.9657 81.2164L93.1803 79.5774C94.3701 80.0564 95.6453 80.3449 96.9604 80.4142L98.2983 82.8381C98.3438 82.9246 98.4406 82.9708 98.5374 82.9535L101.777 82.3648C101.873 82.3475 101.947 82.2725 101.959 82.1744L102.38 79.4331C103.587 78.9021 104.686 78.1865 105.637 77.3151L108.272 78.0711C108.364 78.1 108.466 78.0596 108.517 77.9845L110.396 75.249C110.453 75.1682 110.447 75.0643 110.39 74.9836L108.773 72.7386C109.246 71.5324 109.531 70.2397 109.599 68.9066L111.99 67.5503C112.075 67.5042 112.121 67.4061 112.104 67.308L111.523 64.03C111.506 63.9318 111.432 63.8568 111.335 63.8453L108.631 63.4182C108.107 62.1947 107.401 61.0809 106.542 60.1171L107.288 57.4451C107.316 57.3528 107.276 57.2489 107.202 57.1969L104.498 55.2867Z" fill="#91B3FA"/>
<path d="M97.3415 71.862C96.0777 71.7639 94.9049 70.9906 94.347 69.744C93.5386 67.9261 94.3357 65.7792 96.1289 64.9539C97.9222 64.1344 100.04 64.9424 100.854 66.7603C101.662 68.5782 100.865 70.7251 99.0722 71.5504C98.5086 71.8101 97.9165 71.9082 97.3415 71.862ZM96.6641 66.1601C95.5255 66.6795 95.0188 68.0473 95.5312 69.2015C96.0492 70.3557 97.3928 70.8694 98.5313 70.35C99.6699 69.8306 100.177 68.4628 99.6642 67.3086C99.1519 66.1486 97.8083 65.6349 96.6641 66.1601Z" fill="#BDD0FB"/>
<path d="M96.9096 76.9919C95.3953 76.8765 93.9379 76.3571 92.657 75.451C90.7726 74.1237 89.5145 72.1326 89.1103 69.8415C88.9793 69.1086 88.9452 68.3699 88.9964 67.6427C89.1103 66.1076 89.6226 64.6302 90.5164 63.3375C91.8258 61.4272 93.7899 60.1518 96.05 59.7421C96.6534 59.6324 97.2683 59.5862 97.8717 59.6093L97.8262 60.9309C97.3138 60.9136 96.7901 60.9482 96.2777 61.0406C94.4446 61.3753 92.8391 62.3795 91.7347 63.8799C91.7176 63.903 91.7006 63.9261 91.6835 63.9492C91.6493 63.9954 91.6152 64.0415 91.5867 64.0877C90.8352 65.1842 90.3969 66.4423 90.3001 67.7408C90.2545 68.3583 90.2887 68.9816 90.3969 69.6049C90.7384 71.544 91.8087 73.2349 93.4027 74.3603C94.9968 75.4857 96.9324 75.9185 98.8452 75.5665C100.758 75.2202 102.426 74.1352 103.536 72.5193C104.288 71.4228 104.726 70.1647 104.823 68.8662C104.868 68.2487 104.834 67.6254 104.726 67.0021C104.493 65.6863 103.912 64.4571 103.052 63.4529L104.032 62.5872C105.051 63.7703 105.734 65.2131 106.007 66.7713C106.138 67.5042 106.172 68.2429 106.121 68.9701C106.007 70.5052 105.495 71.9826 104.601 73.2753C103.291 75.1856 101.327 76.461 99.0672 76.8707C98.3556 77.0092 97.6269 77.0496 96.9096 76.9919Z" fill="#BDD0FB"/>
<path d="M85.8187 148.23C74.5351 145.708 83.0348 128.735 83.4333 128.083L63.2118 135.28C63.2118 135.28 61.4071 145.142 73.9886 154.226C77.171 156.523 80.3932 157.516 83.4333 157.718C83.2283 153.753 84.384 150.585 85.8187 148.23Z" fill="url(#paint1_linear)"/>
<path d="M108.79 149.009C105.477 144.9 99.9719 146.464 99.9719 146.464C93.4136 148.536 88.8877 148.911 85.8191 148.224C84.3845 150.579 83.2288 153.747 83.4338 157.706C90.0035 158.145 95.7078 154.878 98.2924 153.101C99.2204 152.46 100.49 152.668 101.145 153.591C101.811 154.526 102.386 155.715 101.953 156.662C101.105 158.532 103.171 159.801 103.541 159.143C103.911 158.48 104.156 154.001 104.156 154.001C104.156 154.001 107.356 159.865 108.614 162.127C109.872 164.389 112.565 163.27 112.565 163.27C112.565 163.27 112.104 153.118 108.79 149.009Z" fill="url(#paint2_linear)"/>
<path d="M40.8097 105.125C40.8097 105.125 55.008 93.7845 92.2515 109.915C92.2515 109.915 96.2765 114.416 94.9045 119.905C93.5325 125.393 74.1365 155.928 74.2332 169.623C74.2332 169.623 60.2228 179.353 40.6788 172.035C40.6788 172.035 31.8831 136.468 40.8097 105.125Z" fill="url(#paint3_linear)"/>
<path d="M70.9373 89.792L65.8421 101.894C65.3354 103.094 65.5517 104.491 66.4228 105.455C68.1819 107.4 71.7571 109.933 77.4102 107.746C79.0896 107.094 80.3136 105.588 80.604 103.787L82.773 90.5192L70.9373 89.792Z" fill="url(#paint4_linear)"/>
<path d="M40.4632 150.549C36.3529 143.393 50.2836 120.54 50.2836 120.54L40.8105 105.119C40.8105 105.119 7.95067 144.905 24.8133 163.973C27.2328 166.708 29.8629 168.342 32.5899 169.144C33.273 159.189 37.3207 153.504 40.4632 150.549Z" fill="url(#paint5_linear)"/>
<path d="M40.1225 150.544C39.9232 150.601 39.7012 150.521 39.5873 150.33C35.3859 143.012 48.8384 120.782 49.4134 119.836C49.5501 119.616 49.8347 119.547 50.0567 119.68C50.2731 119.818 50.3414 120.107 50.2104 120.332C50.0738 120.557 36.4733 143.024 40.3958 149.851C40.5267 150.076 40.447 150.365 40.225 150.497C40.1965 150.515 40.1623 150.532 40.1225 150.544Z" fill="url(#paint6_linear)"/>
<path d="M73.5001 149.764C70.9781 150.474 68.6326 151.744 66.0992 152.396C63.2869 153.123 60.503 153.977 57.6736 154.623C53.2672 155.628 47.4718 156.782 43.6006 153.712C43.2761 153.452 40.6516 150.445 40.4637 150.555C33.4386 154.67 32.0723 164.29 32.0723 168.953C44.8815 176.057 65.0346 162.224 70.4601 158.184C71.3539 157.521 72.4583 157.232 73.557 157.382C75.7773 157.688 79.603 158.103 81.6183 157.648C84.5673 156.972 89.5714 167.343 94.1827 163.719C94.1827 163.713 88.7915 145.465 73.5001 149.764Z" fill="url(#paint7_linear)"/>
<path d="M87.4467 72.6865C87.4467 72.6865 90.6632 83.2476 90.3729 88.5686C90.0825 93.8895 90.8283 97.4445 84.6799 97.8312C78.5315 98.2121 73.7836 94.5936 71.6145 89.013C71.6145 89.013 68.1931 80.4083 69.5252 77.1937C70.8631 73.9792 87.4467 72.6865 87.4467 72.6865Z" fill="url(#paint8_linear)"/>
<path d="M74.0912 85.4575L74.854 85.5441C74.854 85.5441 72.4288 78.6591 75.3152 77.8223C78.2015 76.9855 89.3825 75.964 92.1777 72.2994C94.8705 68.7675 93.379 63.6369 90.4983 61.9229C90.3161 61.8133 90.077 61.8825 89.9632 62.0557L89.6614 62.5116C89.4508 62.8232 88.9783 62.7193 88.9157 62.35C88.8587 61.9979 88.409 61.871 88.1927 62.1538C87.3387 63.2503 85.1754 64.9412 79.824 65.3279C72.2296 65.8761 66.9749 68.375 66.2804 73.5748C66.2349 73.9037 65.8705 74.048 65.6086 73.846C65.0963 73.442 64.2366 73.1881 62.95 74.0538C60.7127 75.5658 61.0543 80.1769 65.1247 84.4014C65.3183 84.6034 65.2784 84.9381 65.0336 85.0651C64.1626 85.5094 62.8134 86.6463 65.7623 88.7009C68.7796 90.8015 70.6982 90.8246 71.4382 90.7207C71.6375 90.6919 71.7855 90.5303 71.7969 90.3283L72.0246 85.6768C72.036 85.4344 72.2466 85.2555 72.48 85.2844L74.0912 85.4575Z" fill="url(#paint9_linear)"/>
<path d="M74.1762 86.4498C74.1762 86.4498 73.2312 79.8304 70.1912 81.3078C67.1455 82.791 70.8743 88.6833 73.1344 89.1853L74.1762 86.4498Z" fill="url(#paint10_linear)"/>
<path d="M64.1804 169.826C64.2203 169.826 64.2601 169.826 64.3 169.826L116.004 169.012C117.279 168.995 118.298 167.979 118.275 166.75C118.252 165.521 117.188 164.516 115.912 164.557L64.2089 165.371C62.928 165.388 61.9146 166.404 61.9374 167.633C61.9659 168.828 62.9564 169.786 64.1804 169.826Z" fill="url(#paint11_linear)"/>
<path d="M84.3054 93.0931C75.0941 93.8837 67.5566 86.5717 67.5054 86.4621V84.8115C67.5566 84.9154 75.4983 93.0411 84.2541 92.2909L84.3054 93.0931Z" fill="url(#paint12_linear)"/>
<path d="M88.0623 92.6898C88.0623 93.3131 87.6183 93.8152 87.0717 93.8152H84.4359C83.8894 93.8152 83.4453 93.3131 83.4453 92.6898C83.4453 92.0665 83.8894 91.5645 84.4359 91.5645H87.0717C87.6183 91.5645 88.0623 92.0723 88.0623 92.6898Z" fill="url(#paint13_linear)"/>
<path d="M72.2125 76.524C72.2125 76.524 70.1061 65.1433 83.0861 65.0798C83.2683 65.0798 83.2968 64.8201 83.1203 64.7797C79.5679 63.9487 69.2465 62.7194 69.0928 76.3739C71.0682 77.0953 72.2125 76.524 72.2125 76.524Z" fill="url(#paint14_linear)"/>
<path d="M69.8326 75.1387C64.7716 76.1833 65.3921 82.67 65.3921 82.67C65.0278 87.3793 66.3827 89.7166 68.1191 90.8304C69.3089 91.5922 70.8004 91.6614 72.0529 91.0209C73.3053 90.3803 74.1365 89.1164 74.239 87.6967C74.3301 86.4155 74.4382 85.1978 74.535 84.765C74.7684 83.7146 74.8994 74.0942 69.8326 75.1387Z" fill="url(#paint15_linear)"/>
<path d="M70.3001 76.7779C69.2469 76.5932 68.2108 77.1588 67.7895 78.1514C64.7608 85.2614 68.4783 89.8841 70.3058 89.9764C72.23 90.0803 72.1902 80.7023 71.7803 78.2957C71.6038 77.2915 70.9719 76.8991 70.3001 76.7779Z" fill="url(#paint16_linear)"/>
<path d="M22.7015 171.62C22.6161 170.974 22.73 170.304 23.0203 169.796C23.3107 169.288 23.7376 168.994 24.1931 168.994H178.057C178.655 168.994 179.213 169.439 179.532 170.166C179.856 170.899 179.896 171.816 179.646 172.601L177.978 177.841C177.596 179.042 176.771 179.809 175.86 179.809H25.252C24.4037 179.809 23.675 178.938 23.5156 177.732L22.7015 171.62Z" fill="url(#paint17_linear)"/>
<path d="M175.865 180H25.2513C24.312 180 23.4979 179.053 23.3271 177.755L22.513 171.649C22.4219 170.956 22.5471 170.246 22.8546 169.704C23.1791 169.133 23.6687 168.804 24.1924 168.804H178.057C178.734 168.804 179.349 169.283 179.708 170.091C180.049 170.87 180.095 171.828 179.827 172.665L178.159 177.905C177.761 179.174 176.855 180 175.865 180ZM22.8944 171.591L23.7085 177.697C23.8565 178.805 24.5055 179.607 25.257 179.607H175.871C176.696 179.607 177.453 178.886 177.806 177.772L179.474 172.532C179.713 171.787 179.673 170.927 179.366 170.235C179.076 169.571 178.586 169.179 178.062 169.179H24.1981C23.811 169.179 23.4466 169.439 23.1904 169.883C22.9172 170.362 22.809 170.985 22.8944 171.591Z" fill="#91B3FA"/>
<path d="M104.064 109.466C103.193 116.662 99.2879 145.916 98.1664 154.273C98.007 155.45 98.9293 156.483 100.102 156.448L166.425 154.526C167.291 154.503 168.031 153.88 168.224 153.02L178.54 105.916C178.813 104.67 177.834 103.51 176.576 103.579L105.835 107.78C104.918 107.838 104.173 108.548 104.064 109.466Z" fill="url(#paint18_linear)"/>
<path d="M130.725 139.008L120.921 167.211L143.716 167.702L145.612 139.175C145.703 137.836 144.604 136.723 143.283 136.815L132.637 137.531C131.766 137.588 131.015 138.171 130.725 139.008Z" fill="url(#paint19_linear)"/>
<path d="M143.892 167.898L143.71 167.892L120.653 167.396L130.542 138.939C130.861 138.027 131.675 137.398 132.626 137.334L143.272 136.619C143.955 136.572 144.627 136.826 145.11 137.323C145.594 137.813 145.845 138.494 145.799 139.187L143.892 167.898ZM121.188 167.021L143.533 167.5L145.418 139.158C145.458 138.575 145.247 138.004 144.837 137.594C144.433 137.178 143.869 136.965 143.294 137.005L132.648 137.721C131.851 137.773 131.163 138.304 130.901 139.066L121.188 167.021Z" fill="#91B3FA"/>
<path d="M111.683 167.61C111.433 168.383 112.002 169.186 112.81 169.186H148.505C149.16 169.186 149.689 168.649 149.689 167.985V166.433C149.689 165.752 149.126 165.204 148.454 165.233L112.759 166.785C112.264 166.808 111.837 167.137 111.683 167.61Z" fill="url(#paint20_linear)"/>
<path d="M148.499 169.381H112.804C112.36 169.381 111.95 169.174 111.689 168.804C111.427 168.435 111.358 167.985 111.495 167.552C111.671 167.004 112.172 166.617 112.742 166.594L148.437 165.041C148.813 165.024 149.171 165.163 149.444 165.428C149.718 165.694 149.866 166.051 149.866 166.432V167.985C149.877 168.752 149.262 169.381 148.499 169.381ZM148.505 165.428C148.488 165.428 148.477 165.428 148.46 165.428L112.765 166.981C112.355 166.998 111.99 167.275 111.865 167.673C111.763 167.985 111.814 168.314 112.002 168.579C112.19 168.845 112.486 168.995 112.804 168.995H148.499C149.046 168.995 149.49 168.544 149.49 167.99V166.432C149.49 166.155 149.382 165.896 149.183 165.705C149 165.526 148.761 165.428 148.505 165.428Z" fill="#91B3FA"/>
<path d="M103.062 139.222L102.59 139.164L105.846 113.113C106.045 111.497 107.361 110.251 108.96 110.153L170.091 106.413L170.12 106.892L108.994 110.632C107.617 110.718 106.495 111.786 106.319 113.171L103.062 139.222Z" fill="#91B3FA"/>
<path d="M101.659 146.597L100.958 152.236L101.426 152.296L102.128 146.656L101.659 146.597Z" fill="#91B3FA"/>
<path d="M124.229 40.2749V54.7776C124.229 56.5032 125.567 57.9229 127.264 58.0037L145.157 58.8578C146.973 58.9443 148.487 57.4785 148.487 55.6317V40.2749C148.487 38.4916 147.064 37.0488 145.305 37.0488H127.412C125.653 37.0488 124.229 38.4916 124.229 40.2749Z" fill="url(#paint21_linear)"/>
<path d="M131.062 44.1771L130.362 41.557L128.324 40.4316L128.05 40.9337L129.872 41.9321L132.047 50.0116L132.115 50.254H140.985C141.85 50.254 142.641 49.8269 143.114 49.0882L143.512 48.5573C143.939 47.8879 144.224 47.1145 144.224 46.3124V44.1771H131.062ZM143.581 46.3124C143.581 46.9991 143.364 47.6686 143 48.2514L142.647 48.8516C142.283 49.423 141.657 49.8269 140.99 49.8269H132.559L132.098 48.1014L131.221 44.835H143.586V46.3124H143.581Z" fill="white"/>
<path d="M143.023 53.1859C143.023 53.3475 142.898 53.5091 142.738 53.5091H132.331C132.172 53.5091 132.013 53.2609 132.013 53.0993V48.1247C132.013 48.0727 132.047 48.0785 132.07 48.0381L132.548 49.8156H132.656V52.857H142.738C142.898 52.8627 143.023 53.0301 143.023 53.1859Z" fill="white"/>
<path d="M137.632 44.4658H137.25V49.8791H137.632V44.4658Z" fill="white"/>
<path d="M134.273 44.4658H133.891V49.8791H134.273V44.4658Z" fill="white"/>
<path d="M140.905 44.4658H140.523V49.8791H140.905V44.4658Z" fill="white"/>
<path d="M143.712 46.0576H131.358V46.4039H143.712V46.0576Z" fill="white"/>
<path d="M143.404 47.9453H131.899V48.2915H143.404V47.9453Z" fill="white"/>
<path d="M133.67 53.8838C132.992 53.8838 132.44 54.4378 132.44 55.1303C132.44 55.8171 132.986 56.3769 133.67 56.3769C134.347 56.3769 134.899 55.8229 134.899 55.1303C134.894 54.4436 134.347 53.8838 133.67 53.8838ZM133.67 55.8806C133.26 55.8806 132.93 55.5459 132.93 55.1303C132.93 54.7148 133.26 54.3801 133.67 54.3801C134.08 54.3801 134.41 54.7148 134.41 55.1303C134.41 55.5401 134.074 55.8806 133.67 55.8806Z" fill="white"/>
<path d="M141.292 53.8838C140.614 53.8838 140.062 54.4378 140.062 55.1303C140.062 55.8171 140.609 56.3769 141.292 56.3769C141.969 56.3769 142.521 55.8229 142.521 55.1303C142.516 54.4436 141.969 53.8838 141.292 53.8838ZM141.292 55.8806C140.882 55.8806 140.552 55.5459 140.552 55.1303C140.552 54.7148 140.882 54.3801 141.292 54.3801C141.702 54.3801 142.032 54.7148 142.032 55.1303C142.032 55.5401 141.702 55.8806 141.292 55.8806Z" fill="white"/>
<path d="M129.588 40.9384C129.588 41.2616 129.331 41.5213 129.013 41.5213H127.094C126.775 41.5213 126.519 41.2616 126.519 40.9384C126.519 40.6153 126.775 40.3556 127.094 40.3556H129.013C129.331 40.3498 129.588 40.6153 129.588 40.9384Z" fill="white"/>
<path d="M85.4438 23.5047V39.0636C85.4438 40.9103 86.8785 42.4339 88.7002 42.5205L107.891 43.4323C109.838 43.5246 111.466 41.9491 111.466 39.9754V23.5047C111.466 21.5944 109.935 20.042 108.051 20.042H88.8596C86.9696 20.042 85.4438 21.5944 85.4438 23.5047Z" fill="url(#paint22_linear)"/>
<path d="M105.095 38.7796H91.8703C90.8797 38.7796 90.0713 37.9601 90.0713 36.9559V27.1508C90.0713 26.1466 90.8797 25.3271 91.8703 25.3271H105.095C106.086 25.3271 106.894 26.1466 106.894 27.1508V36.9559C106.894 37.9659 106.091 38.7796 105.095 38.7796ZM91.8703 26.5333C91.5344 26.5333 91.2554 26.8103 91.2554 27.1566V36.9617C91.2554 37.3022 91.5287 37.585 91.8703 37.585H105.095C105.431 37.585 105.71 37.308 105.71 36.9617V27.1508C105.71 26.8103 105.437 26.5275 105.095 26.5275H91.8703V26.5333Z" fill="white"/>
<path d="M98.498 32.2694C98.3785 32.2694 98.2589 32.2347 98.1565 32.1597L90.7442 26.833C90.4766 26.6425 90.414 26.2674 90.6019 25.9962C90.7897 25.7249 91.1598 25.6614 91.4273 25.8519L98.498 30.9362L105.472 25.9154C105.74 25.7249 106.11 25.7884 106.297 26.0596C106.485 26.3309 106.423 26.706 106.155 26.8965L98.8339 32.1655C98.7371 32.2347 98.6176 32.2694 98.498 32.2694Z" fill="white"/>
<path d="M91.1762 38.3649L91.0054 37.1761L91.0851 37.7705L90.5898 37.4416C90.7265 37.2165 93.4022 32.4784 95.1613 29.3447C95.3208 29.0561 95.6851 28.958 95.9698 29.1196C96.2544 29.2812 96.3512 29.6506 96.1918 29.9391C96.1918 29.9391 95.0475 31.9705 93.9032 34.002C93.3282 35.0177 92.7589 36.0334 92.3262 36.7952C91.4609 38.3188 91.4609 38.3188 91.1762 38.3649Z" fill="white"/>
<path d="M105.772 38.3641C105.488 38.3179 105.488 38.3179 104.628 36.8001C104.196 36.0383 103.621 35.0226 103.051 34.0069C101.907 31.9755 100.763 29.944 100.763 29.944C100.603 29.6555 100.7 29.2919 100.985 29.1245C101.269 28.9629 101.628 29.061 101.793 29.3496C103.558 32.4775 106.228 37.2214 106.365 37.4465L105.869 37.7754L105.772 38.3641Z" fill="white"/>
<path d="M146.451 71.7922V85.4754C146.451 87.1029 147.709 88.4418 149.314 88.5168L166.194 89.319C167.908 89.3998 169.336 88.0147 169.336 86.2776V71.7864C169.336 70.107 167.993 68.7393 166.331 68.7393H149.451C147.794 68.745 146.451 70.1128 146.451 71.7922Z" fill="url(#paint23_linear)"/>
<path d="M150.766 88.2328C150.521 88.2328 150.299 88.1578 150.129 87.9962L149.639 87.5403C149.4 87.321 149.303 86.9805 149.36 86.5881C149.417 86.2187 149.605 85.8378 149.895 85.5146L150.22 85.1568C150.243 85.1337 150.265 85.1049 150.288 85.0818L156.38 78.9067C156.437 78.849 156.533 78.849 156.59 78.9067C156.647 78.9644 156.647 79.0625 156.59 79.1202L150.499 85.2953C150.476 85.3184 150.459 85.3357 150.436 85.3588L150.112 85.7166C149.861 85.9936 149.696 86.3168 149.65 86.6285C149.605 86.917 149.673 87.1594 149.833 87.3095L150.322 87.7654C150.664 88.0828 151.375 87.8923 151.865 87.3498L152.19 86.992C152.212 86.969 152.229 86.9459 152.246 86.9228L157.108 81.0593C157.16 80.9959 157.256 80.9843 157.319 81.042C157.382 81.094 157.393 81.1921 157.336 81.2556L152.474 87.119C152.451 87.1479 152.429 87.1709 152.406 87.1998L152.081 87.5576C151.706 88.002 151.205 88.2328 150.766 88.2328ZM150.914 87.2691C150.749 87.2691 150.601 87.2171 150.482 87.1132C150.14 86.7958 150.254 86.1322 150.744 85.5954C150.966 85.3531 151.233 85.1741 151.495 85.0933C151.785 85.0068 152.042 85.0472 152.212 85.203C152.383 85.3646 152.446 85.6185 152.383 85.9186C152.326 86.1899 152.172 86.4726 151.95 86.7208C151.632 87.0728 151.245 87.2691 150.914 87.2691ZM151.785 85.3473C151.711 85.3473 151.637 85.3646 151.58 85.3819C151.37 85.4454 151.148 85.5954 150.966 85.7974C150.613 86.1841 150.482 86.6919 150.687 86.8824C150.869 87.0498 151.341 86.9401 151.728 86.5073C151.916 86.2995 152.042 86.0687 152.087 85.8494C152.11 85.7397 152.133 85.5377 152.007 85.4223C151.945 85.3646 151.865 85.3473 151.785 85.3473ZM159.368 78.7509C159.334 78.7509 159.3 78.7394 159.272 78.7163C159.209 78.6643 159.198 78.5662 159.255 78.5027L161.008 76.3905L161.116 76.4598C162.483 77.3024 164.122 77.0715 165.192 75.8884C165.887 75.1209 166.223 74.0994 166.12 73.0837C166.103 72.9452 166.018 72.8413 165.893 72.7951C165.79 72.7605 165.642 72.7663 165.528 72.8932L163.638 74.9824C163.473 75.167 163.228 75.2594 162.989 75.2421L161.97 75.1555C161.611 75.1266 161.321 74.8496 161.259 74.4918L161.082 73.4703C161.042 73.2279 161.116 72.974 161.281 72.7893L163.171 70.7002C163.285 70.579 163.274 70.4232 163.234 70.3251C163.183 70.1981 163.069 70.1173 162.932 70.1173C161.93 70.1 160.951 70.5271 160.257 71.2946C159.186 72.4777 159.101 74.1571 160.046 75.4614L160.12 75.5652L157.848 77.8679C157.791 77.9256 157.695 77.9256 157.638 77.8679C157.581 77.8102 157.581 77.7121 157.638 77.6544L159.727 75.5364C158.771 74.1282 158.89 72.3565 160.035 71.0926C160.786 70.2616 161.845 69.7941 162.938 69.8172C163.188 69.823 163.41 69.973 163.507 70.2097C163.61 70.452 163.564 70.7175 163.388 70.9137L161.498 73.0029C161.395 73.1183 161.35 73.2741 161.378 73.4242L161.555 74.4456C161.594 74.6707 161.777 74.8381 161.999 74.8554L163.018 74.942C163.171 74.9535 163.319 74.8958 163.422 74.7804L165.312 72.6912C165.488 72.5008 165.745 72.4315 165.989 72.5123C166.229 72.5931 166.399 72.8009 166.422 73.0548C166.536 74.1571 166.172 75.2651 165.42 76.0962C164.276 77.3601 162.545 77.6313 161.076 76.7887L159.488 78.7047C159.454 78.7336 159.408 78.7509 159.368 78.7509Z" fill="white"/>
<path d="M163.928 88.3143C163.888 88.3143 163.848 88.3143 163.808 88.3086C163.427 88.2739 163.085 88.095 162.846 87.7949L157.199 80.783C156.954 80.4772 156.994 80.0386 157.284 79.7846L158.4 78.7978C158.69 78.5381 159.123 78.5612 159.391 78.8497L165.477 85.4749C165.738 85.7577 165.869 86.1271 165.847 86.5137C165.829 86.9004 165.659 87.2524 165.368 87.5064L164.845 87.9681C164.588 88.1931 164.264 88.3143 163.928 88.3143ZM158.656 79.1036L157.54 80.0905C157.415 80.2059 157.398 80.3964 157.506 80.5291L163.154 87.541C163.325 87.7545 163.569 87.8873 163.843 87.9104C164.116 87.9334 164.372 87.8469 164.577 87.668L165.101 87.2063C165.306 87.0274 165.425 86.7734 165.442 86.5022C165.454 86.2252 165.363 85.9655 165.175 85.7635L159.089 79.1383C158.975 78.9998 158.787 78.994 158.656 79.1036Z" fill="white"/>
<path d="M157.552 79.9115L152.651 74.0942C152.571 74.0942 152.503 74.0654 152.44 74.0192L150.971 72.8765C150.931 72.8477 150.897 72.8073 150.874 72.7611L150.225 71.4511C150.146 71.2895 150.197 71.0875 150.345 70.9548L150.715 70.6316C150.863 70.4988 151.068 70.4758 151.216 70.5796L152.406 71.4107C152.446 71.4395 152.48 71.4742 152.503 71.5146L153.453 73.1132C153.505 73.1997 153.516 73.2978 153.493 73.3959L158.543 79.1497L157.552 79.9115ZM152.77 73.7711L157.598 79.496L158.099 79.1151L153.129 73.4594L153.18 73.3671C153.197 73.3325 153.203 73.2978 153.191 73.2805L152.241 71.6819C152.241 71.6761 152.235 71.6761 152.229 71.6704L151.039 70.8393C151.011 70.822 150.954 70.8278 150.903 70.8682L150.533 71.1914C150.482 71.2318 150.47 71.2953 150.487 71.3241L151.136 72.6341C151.136 72.6399 151.142 72.6457 151.148 72.6457L152.616 73.7884C152.628 73.7999 152.651 73.7999 152.679 73.7941L152.77 73.7711Z" fill="white"/>
<path d="M44.2148 33.3623V49.7292C44.2148 51.674 45.7235 53.2726 47.6363 53.365L67.8237 54.3287C69.8731 54.4268 71.581 52.7705 71.581 50.6929V33.3623C71.581 31.3539 69.9756 29.7207 67.9887 29.7207H47.8071C45.8203 29.7265 44.2148 31.3539 44.2148 33.3623Z" fill="url(#paint24_linear)"/>
<path d="M58.6479 43.4673C58.6479 44.9216 58.5454 46.3759 58.2949 47.8129C58.2323 48.1707 58.1583 48.5285 58.0672 48.8806C57.9761 49.2326 57.8793 49.5847 57.7541 49.9252C57.6288 50.2657 57.4808 50.6004 57.2815 50.912C57.1791 51.0621 57.0709 51.2121 56.9286 51.3333C56.8603 51.391 56.7806 51.4487 56.6952 51.4834C56.6098 51.5238 56.5187 51.5468 56.4276 51.5468C56.3365 51.5468 56.2397 51.5295 56.1543 51.4949C56.0689 51.4603 55.9892 51.4083 55.9152 51.3506C55.7729 51.2352 55.659 51.0909 55.5566 50.9409C55.3573 50.635 55.2093 50.3003 55.0784 49.9598C54.9531 49.6193 54.8506 49.2673 54.7596 48.9152C54.6685 48.5632 54.5945 48.2054 54.5318 47.8476C54.4009 47.1319 54.3155 46.4106 54.2586 45.6834C54.2016 44.9562 54.1732 44.2291 54.1675 43.5019C54.1675 43.1383 54.1732 42.7747 54.1903 42.4112C54.2016 42.0476 54.2244 41.684 54.2472 41.3204C54.2984 40.5933 54.3781 39.8719 54.4977 39.1563C54.5546 38.7984 54.6229 38.4406 54.7083 38.0886C54.7937 37.7366 54.8848 37.3845 55.0043 37.0383C55.067 36.8651 55.1296 36.6978 55.2036 36.5304C55.2776 36.363 55.363 36.2014 55.4598 36.0514C55.5566 35.9013 55.6704 35.7513 55.8128 35.6359C55.8811 35.5782 55.9608 35.5262 56.0462 35.4916C56.1316 35.457 56.2226 35.4397 56.3137 35.4454C56.4048 35.4454 56.4959 35.4685 56.5813 35.5089C56.6667 35.5435 56.7407 35.5955 56.809 35.6532C56.9513 35.7686 57.0652 35.9129 57.1677 36.0629C57.3726 36.363 57.5263 36.6978 57.663 37.0325C57.7939 37.373 57.9078 37.7192 57.9989 38.0713C58.0956 38.4233 58.1753 38.7754 58.2437 39.1332C58.534 40.5529 58.6422 42.013 58.6479 43.4673ZM58.5397 43.4673C58.5397 42.7401 58.5112 42.0187 58.4543 41.2973C58.3974 40.576 58.3063 39.8546 58.1753 39.1447C58.107 38.7869 58.033 38.4349 57.9419 38.0828C57.8508 37.7308 57.7427 37.3845 57.6174 37.0498C57.4865 36.7151 57.3385 36.3804 57.1392 36.086C57.0367 35.936 56.9286 35.7975 56.7919 35.682C56.7236 35.6243 56.6496 35.5724 56.5699 35.5378C56.4902 35.5031 56.4048 35.4801 56.3194 35.4743C56.234 35.4743 56.1429 35.4916 56.0632 35.5205C55.9835 35.5551 55.9095 35.6013 55.8412 35.659C55.7046 35.7744 55.5964 35.9187 55.4996 36.0687C55.4029 36.2188 55.3232 36.3804 55.2491 36.5477C55.1751 36.7151 55.1125 36.8824 55.0556 37.0556C54.9417 37.3961 54.8506 37.7481 54.7709 38.1001C54.6912 38.4522 54.6286 38.81 54.5717 39.1678C54.4635 39.8834 54.3895 40.6048 54.344 41.3262C54.2984 42.0476 54.2813 42.7747 54.287 43.5019C54.287 44.2291 54.3098 44.9505 54.361 45.6718C54.4123 46.3932 54.4977 47.1146 54.6172 47.8302C54.6798 48.1881 54.7482 48.5401 54.8336 48.8921C54.919 49.2442 55.0214 49.5904 55.141 49.9309C55.2662 50.2714 55.4085 50.6004 55.6021 50.9005C55.6989 51.0505 55.8127 51.189 55.9494 51.3045C56.0177 51.3622 56.0917 51.4083 56.1714 51.443C56.2511 51.4776 56.3365 51.4949 56.4219 51.4891C56.5073 51.4891 56.5927 51.466 56.6667 51.4257C56.7464 51.391 56.8147 51.3391 56.883 51.2814C57.014 51.166 57.1221 51.0217 57.2189 50.8716C57.4125 50.5715 57.5548 50.2368 57.6744 49.8963C57.7939 49.5558 57.8964 49.2095 57.9761 48.8575C58.0615 48.5055 58.1298 48.1534 58.1924 47.7956C58.312 47.08 58.3974 46.3586 58.4486 45.6372C58.5169 44.9158 58.5397 44.1887 58.5397 43.4673Z" fill="white"/>
<path d="M56.4097 51.754C56.3016 51.754 56.1877 51.7309 56.0795 51.6847C55.9828 51.6443 55.886 51.5866 55.7892 51.5116C55.6469 51.3962 55.5159 51.2519 55.385 51.0499C55.2028 50.7729 55.0434 50.4497 54.884 50.0226C54.7645 49.6994 54.6563 49.3532 54.5595 48.955C54.4741 48.6145 54.4001 48.2624 54.3261 47.8758C54.2009 47.189 54.1098 46.4734 54.0471 45.6885C53.9902 44.9787 53.9561 44.24 53.9561 43.4897C53.9561 43.1031 53.9674 42.7164 53.9788 42.3932C53.9902 42.0239 54.013 41.6545 54.0414 41.2967C54.0984 40.5061 54.1838 39.7962 54.2919 39.1094C54.3546 38.7228 54.4229 38.365 54.5026 38.0245C54.5937 37.6263 54.6961 37.2742 54.81 36.9568C54.8783 36.7606 54.9466 36.5932 55.015 36.4316C55.1004 36.2412 55.1914 36.0738 55.2882 35.9238C55.4192 35.7218 55.5444 35.5775 55.6867 35.4621C55.7835 35.3871 55.8803 35.3236 55.9771 35.289C56.0909 35.2428 56.2105 35.2197 56.33 35.2255C56.4439 35.2313 56.5578 35.2543 56.6716 35.3063C56.7684 35.3467 56.8595 35.4044 56.9506 35.4794C57.0929 35.5948 57.2181 35.7391 57.3491 35.9296C57.5369 36.2066 57.702 36.524 57.8671 36.9395C57.9924 37.2627 58.1062 37.609 58.2144 37.9956C58.3055 38.3361 58.3909 38.6882 58.4649 39.0748C58.7268 40.431 58.8577 41.8623 58.8634 43.4551C58.8634 45.0537 58.7439 46.4907 58.5104 47.8354C58.4421 48.222 58.3681 48.5741 58.2827 48.9203C58.1859 49.3128 58.0778 49.6648 57.9582 49.988C57.8045 50.4093 57.6451 50.7382 57.4686 51.0153C57.3377 51.2115 57.2124 51.3615 57.0758 51.4769C56.9847 51.5577 56.8936 51.6155 56.7969 51.6616C56.6773 51.7136 56.5634 51.7424 56.4439 51.7424C56.4268 51.754 56.4154 51.754 56.4097 51.754ZM56.3016 35.6814C56.2503 35.6814 56.1934 35.6929 56.1422 35.716C56.0852 35.7391 56.0283 35.7737 55.9714 35.8257C55.8689 35.9122 55.7721 36.0277 55.6753 36.1835C55.5956 36.3162 55.5159 36.4605 55.4419 36.6336C55.3793 36.7779 55.3167 36.9395 55.2541 37.1242C55.1516 37.43 55.0605 37.7648 54.9751 38.1457C54.9011 38.4746 54.8385 38.8209 54.7815 39.2018C54.6791 39.8712 54.6051 40.5753 54.5595 41.3429C54.5197 42.0008 54.4969 42.7106 54.5026 43.5013C54.5026 44.2342 54.5254 44.9614 54.5766 45.6597C54.6335 46.4272 54.7189 47.1255 54.8328 47.795C54.8954 48.1701 54.9694 48.5106 55.0491 48.8453C55.1402 49.2262 55.2427 49.5552 55.3508 49.861C55.4932 50.2477 55.6298 50.542 55.7892 50.7902C55.8917 50.946 55.9884 51.0557 56.0909 51.1422C56.1479 51.1884 56.2048 51.223 56.256 51.2461C56.313 51.2692 56.3699 51.2807 56.4211 51.2807C56.478 51.2807 56.5293 51.2634 56.5862 51.2403C56.6431 51.2172 56.7001 51.1768 56.7513 51.1249C56.8538 51.0383 56.9506 50.9229 57.053 50.7613C57.2067 50.5132 57.3491 50.2188 57.4857 49.8322C57.5939 49.5263 57.6907 49.1916 57.7817 48.8165C57.8614 48.4875 57.9298 48.147 57.9924 47.7661C58.1062 47.1024 58.1859 46.4041 58.2429 45.6308C58.2941 44.9325 58.3226 44.2111 58.3226 43.4724C58.3226 42.7395 58.2941 42.0181 58.2372 41.3198C58.1746 40.5522 58.0835 39.8539 57.9639 39.1902C57.8956 38.8209 57.8216 38.4746 57.7362 38.1457C57.6394 37.7705 57.5313 37.4416 57.4174 37.1357C57.2694 36.7548 57.127 36.4605 56.962 36.2123C56.8538 36.0565 56.757 35.9411 56.6545 35.8545C56.5976 35.8026 56.535 35.768 56.478 35.7391C56.4211 35.7103 56.3585 35.6987 56.3073 35.6929C56.3073 35.6814 56.3073 35.6814 56.3016 35.6814Z" fill="white"/>
<path d="M62.2498 43.4673C62.2441 44.4022 62.1246 45.3429 61.8798 46.2432C61.6293 47.1435 61.2536 48.0091 60.7355 48.7882C60.4793 49.1749 60.189 49.5443 59.8645 49.8732C59.54 50.2022 59.1813 50.5023 58.7885 50.7504C58.3957 50.9986 57.9744 51.2006 57.5361 51.3333C57.0977 51.466 56.6366 51.541 56.1755 51.541C55.7143 51.541 55.2532 51.4718 54.8148 51.3333C54.3765 51.2006 53.9495 50.9986 53.5624 50.7504C53.1696 50.5023 52.8109 50.2022 52.4864 49.8732C52.1619 49.5443 51.8716 49.1749 51.6154 48.7882C51.103 48.0091 50.7216 47.1435 50.4711 46.2432C50.3459 45.793 50.2548 45.3314 50.1922 44.8639C50.1295 44.3964 50.1011 43.929 50.1011 43.4615C50.1011 42.9941 50.1352 42.5266 50.1979 42.0592C50.2605 41.5975 50.3516 41.1358 50.4768 40.6856C50.7273 39.7853 51.1087 38.9197 51.6211 38.1406C51.8773 37.7539 52.1676 37.3846 52.4921 37.0556C52.8166 36.7267 53.1753 36.4266 53.5681 36.1784C53.9609 35.9303 54.3822 35.734 54.8205 35.6013C55.2589 35.4686 55.72 35.3936 56.1812 35.3936C56.6423 35.3936 57.0977 35.4628 57.5418 35.6013C57.9801 35.734 58.4014 35.936 58.7942 36.1842C59.1813 36.4323 59.54 36.7324 59.8645 37.0614C60.189 37.3903 60.4793 37.7597 60.7355 38.1464C61.2479 38.9255 61.6293 39.7911 61.8798 40.6914C62.1246 41.5917 62.2441 42.5324 62.2498 43.4673ZM62.1303 43.4673C62.1303 42.5439 62.0164 41.6148 61.7773 40.7203C61.5382 39.8257 61.1739 38.9659 60.6729 38.1925C60.4224 37.8059 60.1378 37.4423 59.8189 37.1076C59.5001 36.7786 59.1472 36.4785 58.7657 36.2304C58.3786 35.9822 57.963 35.786 57.5304 35.6475C57.092 35.5147 56.6423 35.4397 56.1868 35.4397C55.7314 35.4397 55.276 35.5147 54.8433 35.6475C54.405 35.7802 53.9951 35.9822 53.6079 36.2304C53.2265 36.4785 52.8735 36.7786 52.5547 37.1133C52.2359 37.4423 51.9513 37.8116 51.7065 38.1983C51.2055 38.9716 50.8469 39.8315 50.6021 40.726C50.4825 41.1704 50.3971 41.6263 50.3345 42.088C50.2776 42.5439 50.2491 43.0114 50.2434 43.4731C50.2434 43.9348 50.2719 44.3964 50.3345 44.8581C50.3914 45.314 50.4825 45.77 50.6021 46.2201C50.8412 47.1089 51.2055 47.9745 51.7065 48.7478C51.957 49.1345 52.2416 49.4981 52.5547 49.8328C52.8735 50.1618 53.2208 50.4619 53.6079 50.71C53.9894 50.9582 54.405 51.1544 54.8433 51.2929C55.276 51.4256 55.7314 51.5007 56.1868 51.5007C56.6423 51.5007 57.0977 51.4256 57.5304 51.2929C57.963 51.1602 58.3786 50.9582 58.7657 50.7158C59.1529 50.4676 59.5001 50.1675 59.8189 49.8386C60.1378 49.5096 60.4224 49.1403 60.6729 48.7594C61.1739 47.9861 61.5382 47.1262 61.7773 46.2317C62.0164 45.3198 62.1303 44.3907 62.1303 43.4673Z" fill="white"/>
<path d="M56.1804 51.7544C55.7022 51.7544 55.224 51.6851 54.7572 51.5409C54.3074 51.4024 53.869 51.2004 53.4535 50.9349C53.0606 50.6867 52.6849 50.3809 52.3433 50.0288C52.0188 49.6999 51.7171 49.319 51.4438 48.9092C50.9315 48.1359 50.5386 47.2587 50.2711 46.3007C50.1458 45.8448 50.0491 45.3716 49.9864 44.8925C49.9238 44.4251 49.8953 43.9461 49.8896 43.4613C49.8896 42.9765 49.9238 42.4975 49.9864 42.0301C50.0491 41.5511 50.1458 41.0778 50.2711 40.6277C50.5386 39.6697 50.9315 38.7925 51.4438 38.0192C51.7171 37.6094 52.0188 37.2343 52.3433 36.9053C52.6906 36.5533 53.0606 36.2474 53.4535 35.9993C53.869 35.7396 54.3074 35.5318 54.7572 35.3991C55.2183 35.2548 55.6965 35.1855 56.1747 35.1855C56.6529 35.1855 57.1311 35.2606 57.5923 35.3991C58.042 35.5376 58.4804 35.7396 58.8959 36.005C59.2888 36.2532 59.6588 36.5591 60.0061 36.9111C60.3306 37.2458 60.6323 37.621 60.9056 38.0249C61.4179 38.7983 61.8108 39.6755 62.0783 40.6277C62.3231 41.528 62.4541 42.4802 62.4598 43.4613C62.4541 44.4424 62.3288 45.3946 62.084 46.2949C61.8164 47.2529 61.4236 48.1301 60.917 48.9035C60.6494 49.3132 60.342 49.6883 60.0175 50.0231C59.6759 50.3751 59.3001 50.681 58.9073 50.9349C58.4917 51.2004 58.0534 51.4024 57.6036 51.5409C57.1368 51.6794 56.6586 51.7544 56.1804 51.7544ZM56.1804 35.653C55.7477 35.653 55.3151 35.7223 54.8938 35.8492C54.4896 35.9762 54.0911 36.1609 53.7096 36.409C53.3567 36.6399 53.0151 36.9227 52.6963 37.2574C52.3946 37.569 52.1213 37.9268 51.8708 38.3077C51.404 39.0349 51.0396 39.8659 50.7948 40.7778C50.681 41.199 50.5956 41.6492 50.533 42.1109C50.476 42.5553 50.4476 43.0112 50.4476 43.4671C50.4476 43.923 50.476 44.3789 50.533 44.8233C50.5899 45.285 50.681 45.7351 50.7948 46.1564C51.0396 47.0683 51.404 47.8935 51.8708 48.6207C52.1213 49.0073 52.3946 49.3594 52.6963 49.671C53.0151 50.0058 53.3567 50.2885 53.7096 50.5194C54.0854 50.7618 54.4839 50.9464 54.8938 51.0734C55.3151 51.2061 55.742 51.2696 56.1747 51.2754C56.6074 51.2754 57.04 51.2061 57.4556 51.0792C57.8655 50.9522 58.264 50.7675 58.6398 50.5251C58.9927 50.3001 59.3343 50.0115 59.6531 49.6768C59.9548 49.3652 60.2338 49.0131 60.4786 48.6265C60.9454 47.8993 61.3098 47.0683 61.5603 46.1622C61.788 45.3081 61.9075 44.402 61.9075 43.4729C61.9075 42.5437 61.788 41.6376 61.5603 40.7835C61.3155 39.8717 60.9511 39.0406 60.4843 38.3135C60.2338 37.9268 59.9548 37.5748 59.6588 37.2631C59.34 36.9284 58.9984 36.6456 58.6398 36.4148C58.2583 36.1724 57.8598 35.982 57.4556 35.855C57.0457 35.7223 56.6131 35.653 56.1804 35.653Z" fill="white"/>
<path d="M49.0999 40.2691L50.9217 40.2518L52.7434 40.246L56.3869 40.2402L60.0304 40.246L61.8521 40.2575L63.6738 40.2749C63.6795 40.2749 63.6795 40.2749 63.6795 40.2806C63.6795 40.2806 63.6795 40.2864 63.6738 40.2864L61.8521 40.3037L60.0304 40.3153L56.3869 40.321L52.7434 40.3153L50.9217 40.3095L49.0999 40.2922C49.0942 40.2922 49.0942 40.2864 49.0942 40.2864C49.0942 40.2749 49.0942 40.2691 49.0999 40.2691Z" fill="white"/>
<path d="M56.3918 40.5285L50.9209 40.5111L49.0081 40.4938L48.8828 40.3669V40.2745L48.8885 40.0668L49.0991 40.0552L52.7426 40.0321L56.3918 40.0264L61.8571 40.0437L63.8895 40.061L63.8952 40.4881L63.6788 40.4938L60.0353 40.5227L56.3918 40.5285Z" fill="white"/>
<path d="M51.2108 37.1646C51.6434 37.1588 52.0761 37.1531 52.5031 37.1473L53.7954 37.1415C54.2281 37.1357 54.6607 37.1357 55.0877 37.1357H56.38L58.9703 37.1415L60.2626 37.1531C60.6953 37.1588 61.1279 37.1646 61.5549 37.1704C61.5606 37.1704 61.5606 37.1704 61.5606 37.1704C61.5606 37.1761 61.5606 37.1761 61.5549 37.1761C61.1223 37.1819 60.6896 37.1877 60.2626 37.1935L58.9703 37.205L56.38 37.2108H55.0877C54.655 37.2108 54.2224 37.2108 53.7954 37.205L52.5031 37.1992C52.0704 37.1935 51.6377 37.1935 51.2108 37.1819C51.2051 37.1819 51.2051 37.1761 51.2051 37.1761C51.2051 37.1646 51.2108 37.1646 51.2108 37.1646Z" fill="white"/>
<path d="M56.3912 37.4239L54.763 37.4181C54.4442 37.4181 54.1254 37.4181 53.8009 37.4123L52.076 37.4008C51.7856 37.395 51.501 37.395 51.2106 37.3892L51.0057 37.3835L51 36.9564L51.2106 36.9506C51.4896 36.9449 51.7685 36.9449 52.0475 36.9391L53.8009 36.9276C54.1027 36.9276 54.4101 36.9218 54.7118 36.9218L56.3912 36.916L60.7463 36.9391C61.0196 36.9449 61.2986 36.9449 61.5718 36.9506L61.7824 36.9564L61.7711 37.3835L61.5661 37.3892C61.2815 37.395 60.9911 37.395 60.7065 37.4008L58.9815 37.4123L56.3912 37.4239Z" fill="white"/>
<path d="M48.4675 43.3736L50.4487 43.3563L52.4298 43.3505L56.3921 43.3447L60.3544 43.3505L62.3356 43.362L64.3168 43.3794C64.3224 43.3794 64.3225 43.3794 64.3225 43.3851C64.3225 43.3851 64.3224 43.3909 64.3168 43.3909L62.3356 43.4082L60.3544 43.4198L56.3921 43.4255L52.4298 43.4198L50.4487 43.414L48.4675 43.3967C48.4618 43.3967 48.4618 43.3909 48.4618 43.3909C48.4561 43.3794 48.4618 43.3736 48.4675 43.3736Z" fill="white"/>
<path d="M56.3919 43.6339L50.4485 43.6224L48.2567 43.6051L48.251 43.1722L48.4616 43.1665L52.4296 43.1434L56.3919 43.1318L62.3354 43.1491L64.402 43.1665L64.5272 43.2992L64.5215 43.5993H64.3166L60.3543 43.6281L56.3919 43.6339Z" fill="white"/>
<path d="M49.0999 46.4849L50.9217 46.4676L52.7434 46.4618L56.3869 46.4561L60.0304 46.4618L61.8521 46.4734L63.6738 46.4907C63.6795 46.4907 63.6795 46.4907 63.6795 46.4907C63.6795 46.4965 63.6795 46.4965 63.6738 46.4965L61.8521 46.5138L60.0304 46.5253L56.3869 46.5311L52.7434 46.5253L50.9217 46.5195L49.0999 46.5022C49.0942 46.5022 49.0942 46.4965 49.0942 46.4965C49.0942 46.4849 49.0942 46.4849 49.0999 46.4849Z" fill="white"/>
<path d="M56.3918 46.7395L50.9209 46.7279L49.0081 46.7106L48.8828 46.5837V46.4855L48.8885 46.2778L49.0991 46.272L52.7426 46.2489L56.3918 46.2432L61.8571 46.2605L63.8895 46.2778L63.8952 46.7049L63.6788 46.7106L60.0353 46.7337L56.3918 46.7395Z" fill="white"/>
<path d="M61.8294 49.6242H51.4796C51.4626 49.6242 51.4512 49.6126 51.4512 49.5953C51.4512 49.578 51.4626 49.5664 51.4796 49.5664H61.8294C61.8465 49.5664 61.8579 49.578 61.8579 49.5953C61.8579 49.6126 61.8408 49.6242 61.8294 49.6242Z" fill="white"/>
<path d="M61.8287 49.8384H51.4789C51.3479 49.8384 51.2397 49.7287 51.2397 49.5959C51.2397 49.4632 51.3479 49.3535 51.4789 49.3535H61.8287C61.9596 49.3535 62.0621 49.4632 62.0621 49.5959C62.0621 49.7287 61.9596 49.8384 61.8287 49.8384Z" fill="white"/>
<path d="M56.3914 51.9215C51.6947 51.9215 47.8804 48.0895 47.8804 43.3861C47.8804 38.6768 51.7004 34.8506 56.3914 34.8506C61.0881 34.8506 64.9024 38.6826 64.9024 43.3861C64.9024 48.0953 61.0824 51.9215 56.3914 51.9215ZM56.3914 35.6066C52.1103 35.6066 48.6262 39.0981 48.6262 43.3861C48.6262 47.674 52.1103 51.1655 56.3914 51.1655C60.6725 51.1655 64.1566 47.674 64.1566 43.3861C64.1566 39.0981 60.6725 35.6066 56.3914 35.6066Z" fill="white"/>
<path d="M64.573 36.478H62.1307V35.8374L62.9391 34.6717C63.1611 34.3485 63.3148 34.1119 63.4002 33.9561C63.4856 33.8002 63.5425 33.6502 63.5824 33.5117C63.6222 33.3674 63.6393 33.2231 63.6393 33.0731C63.6393 32.8942 63.5995 32.7614 63.5198 32.6749C63.4401 32.5883 63.3433 32.5421 63.218 32.5421C63.1099 32.5421 63.0074 32.571 62.9106 32.6287C62.8138 32.6864 62.7 32.7961 62.5633 32.9461L62.0908 32.4383C62.3072 32.1901 62.5121 32.017 62.7 31.9246C62.8878 31.8323 63.0871 31.7861 63.3091 31.7861C63.6792 31.7861 63.9638 31.8958 64.1688 32.1151C64.3737 32.3344 64.4762 32.6403 64.4762 33.0269C64.4762 33.2058 64.4591 33.3732 64.4193 33.529C64.3794 33.6848 64.3225 33.8464 64.2485 34.0022C64.1745 34.1638 64.0777 34.3254 63.9638 34.4986C63.85 34.6717 63.5539 35.0641 63.0757 35.6816V35.7047H64.5673V36.478H64.573Z" fill="white"/>
<path d="M67.7157 35.5086H67.2546V36.4781H66.4576V35.5086H64.9717V34.8103L66.3494 31.8555H67.2546V34.793H67.7157V35.5086ZM66.4576 34.7987V33.8234L66.4746 33.3964L66.4974 32.9866H66.4746C66.4006 33.2175 66.3209 33.4252 66.2355 33.6099L65.689 34.7987H66.4576Z" fill="white"/>
<defs>
<linearGradient id="paint0_linear" x1="193.041" y1="181.934" x2="74.446" y2="79.5682" gradientUnits="userSpaceOnUse">
<stop stop-color="#DAE3FE"/>
<stop offset="1" stop-color="#E9EFFD"/>
</linearGradient>
<linearGradient id="paint1_linear" x1="94.7642" y1="206.069" x2="83.037" y2="167.484" gradientUnits="userSpaceOnUse">
<stop stop-color="#4F52FF"/>
<stop offset="1" stop-color="#4042E2"/>
</linearGradient>
<linearGradient id="paint2_linear" x1="84.8435" y1="149.411" x2="114.148" y2="157.637" gradientUnits="userSpaceOnUse">
<stop stop-color="#FEBBBA"/>
<stop offset="1" stop-color="#FF928E"/>
</linearGradient>
<linearGradient id="paint3_linear" x1="81.7141" y1="105.483" x2="29.2901" y2="172.723" gradientUnits="userSpaceOnUse">
<stop stop-color="#4F52FF"/>
<stop offset="1" stop-color="#4042E2"/>
</linearGradient>
<linearGradient id="paint4_linear" x1="53.4352" y1="127.349" x2="78.2613" y2="94.8238" gradientUnits="userSpaceOnUse">
<stop stop-color="#FEBBBA"/>
<stop offset="1" stop-color="#FF928E"/>
</linearGradient>
<linearGradient id="paint5_linear" x1="68.5009" y1="95.1814" x2="16.0771" y2="162.422" gradientUnits="userSpaceOnUse">
<stop stop-color="#4F52FF"/>
<stop offset="1" stop-color="#4042E2"/>
</linearGradient>
<linearGradient id="paint6_linear" x1="73.309" y1="118.477" x2="45.8017" y2="134.127" gradientUnits="userSpaceOnUse">
<stop stop-color="#09005D"/>
<stop offset="1" stop-color="#1A0F91"/>
</linearGradient>
<linearGradient id="paint7_linear" x1="66.4189" y1="156.242" x2="-2.99019" y2="296.571" gradientUnits="userSpaceOnUse">
<stop stop-color="#FEBBBA"/>
<stop offset="1" stop-color="#FF928E"/>
</linearGradient>
<linearGradient id="paint8_linear" x1="87.3806" y1="81.6549" x2="60.3452" y2="97.7138" gradientUnits="userSpaceOnUse">
<stop stop-color="#FEBBBA"/>
<stop offset="1" stop-color="#FF928E"/>
</linearGradient>
<linearGradient id="paint9_linear" x1="71.6731" y1="64.5463" x2="91.233" y2="96.0712" gradientUnits="userSpaceOnUse">
<stop stop-color="#09005D"/>
<stop offset="1" stop-color="#1A0F91"/>
</linearGradient>
<linearGradient id="paint10_linear" x1="84.76" y1="77.2435" x2="57.7248" y2="93.3021" gradientUnits="userSpaceOnUse">
<stop stop-color="#FEBBBA"/>
<stop offset="1" stop-color="#FF928E"/>
</linearGradient>
<linearGradient id="paint11_linear" x1="55.1549" y1="156.736" x2="96.2001" y2="169.866" gradientUnits="userSpaceOnUse">
<stop stop-color="#09005D"/>
<stop offset="1" stop-color="#1A0F91"/>
</linearGradient>
<linearGradient id="paint12_linear" x1="83.4012" y1="78.7268" x2="63.6147" y2="105.007" gradientUnits="userSpaceOnUse">
<stop stop-color="#4F52FF"/>
<stop offset="1" stop-color="#4042E2"/>
</linearGradient>
<linearGradient id="paint13_linear" x1="91.0029" y1="85.7346" x2="79.2388" y2="100.91" gradientUnits="userSpaceOnUse">
<stop stop-color="#4F52FF"/>
<stop offset="1" stop-color="#4042E2"/>
</linearGradient>
<linearGradient id="paint14_linear" x1="103.937" y1="60.1405" x2="21.1714" y2="88.4398" gradientUnits="userSpaceOnUse">
<stop stop-color="#4F52FF"/>
<stop offset="1" stop-color="#4042E2"/>
</linearGradient>
<linearGradient id="paint15_linear" x1="79.193" y1="68.9487" x2="69.4756" y2="84.0302" gradientUnits="userSpaceOnUse">
<stop stop-color="#4F52FF"/>
<stop offset="1" stop-color="#4042E2"/>
</linearGradient>
<linearGradient id="paint16_linear" x1="70.2475" y1="83.9452" x2="52.8435" y2="49.4801" gradientUnits="userSpaceOnUse">
<stop stop-color="#4F52FF"/>
<stop offset="1" stop-color="#4042E2"/>
</linearGradient>
<linearGradient id="paint17_linear" x1="100.148" y1="195.814" x2="102.414" y2="146.636" gradientUnits="userSpaceOnUse">
<stop stop-color="#09005D"/>
<stop offset="1" stop-color="#1A0F91"/>
</linearGradient>
<linearGradient id="paint18_linear" x1="131.442" y1="112.07" x2="148.436" y2="154.937" gradientUnits="userSpaceOnUse">
<stop stop-color="#09005D"/>
<stop offset="1" stop-color="#1A0F91"/>
</linearGradient>
<linearGradient id="paint19_linear" x1="129.444" y1="129.175" x2="139.183" y2="188.262" gradientUnits="userSpaceOnUse">
<stop stop-color="#09005D"/>
<stop offset="1" stop-color="#1A0F91"/>
</linearGradient>
<linearGradient id="paint20_linear" x1="125.175" y1="163.57" x2="153.381" y2="181.806" gradientUnits="userSpaceOnUse">
<stop stop-color="#09005D"/>
<stop offset="1" stop-color="#1A0F91"/>
</linearGradient>
<linearGradient id="paint21_linear" x1="143.598" y1="34.2444" x2="6.32624" y2="287.21" gradientUnits="userSpaceOnUse">
<stop stop-color="#FF928E"/>
<stop offset="1" stop-color="#FE7062"/>
</linearGradient>
<linearGradient id="paint22_linear" x1="107.482" y1="14.6461" x2="-29.7903" y2="267.611" gradientUnits="userSpaceOnUse">
<stop stop-color="#FF928E"/>
<stop offset="1" stop-color="#FE7062"/>
</linearGradient>
<linearGradient id="paint23_linear" x1="173.094" y1="50.2508" x2="35.8218" y2="303.215" gradientUnits="userSpaceOnUse">
<stop stop-color="#FF928E"/>
<stop offset="1" stop-color="#FE7062"/>
</linearGradient>
<linearGradient id="paint24_linear" x1="80.1811" y1="-0.168159" x2="-57.0915" y2="252.797" gradientUnits="userSpaceOnUse">
<stop stop-color="#FF928E"/>
<stop offset="1" stop-color="#FE7062"/>
</linearGradient>
</defs>
</svg>
